<svg width="25" height="25" viewBox="0 0 25 25" fill="none" xmlns="http://www.w3.org/2000/svg">
<g id="uil:instagram">
<path id="Vector" d="M18.2482 5.80375C18.0109 5.80375 17.7789 5.87413 17.5815 6.00599C17.3842 6.13784 17.2304 6.32526 17.1395 6.54453C17.0487 6.7638 17.025 7.00508 17.0713 7.23786C17.1176 7.47064 17.2319 7.68446 17.3997 7.85228C17.5675 8.0201 17.7813 8.13439 18.0141 8.18069C18.2469 8.22699 18.4882 8.20323 18.7074 8.11241C18.9267 8.02158 19.1141 7.86777 19.246 7.67043C19.3778 7.4731 19.4482 7.24109 19.4482 7.00375C19.4482 6.68549 19.3218 6.38027 19.0967 6.15522C18.8717 5.93018 18.5665 5.80375 18.2482 5.80375ZM22.8482 8.22375C22.8288 7.39405 22.6734 6.57315 22.3882 5.79375C22.1339 5.12688 21.7382 4.52303 21.2282 4.02375C20.733 3.51118 20.1278 3.11793 19.4582 2.87375C18.6809 2.57991 17.8591 2.42096 17.0282 2.40375C15.9682 2.34375 15.6282 2.34375 12.9082 2.34375C10.1882 2.34375 9.8482 2.34375 8.7882 2.40375C7.95736 2.42096 7.13555 2.57991 6.3582 2.87375C5.68988 3.1204 5.08514 3.51331 4.5882 4.02375C4.07563 4.51893 3.68238 5.12419 3.4382 5.79375C3.14436 6.57109 2.98541 7.3929 2.9682 8.22375C2.9082 9.28375 2.9082 9.62375 2.9082 12.3438C2.9082 15.0638 2.9082 15.4038 2.9682 16.4638C2.98541 17.2946 3.14436 18.1164 3.4382 18.8937C3.68238 19.5633 4.07563 20.1686 4.5882 20.6637C5.08514 21.1742 5.68988 21.5671 6.3582 21.8137C7.13555 22.1076 7.95736 22.2665 8.7882 22.2838C9.8482 22.3438 10.1882 22.3438 12.9082 22.3438C15.6282 22.3438 15.9682 22.3438 17.0282 22.2838C17.8591 22.2665 18.6809 22.1076 19.4582 21.8137C20.1278 21.5696 20.733 21.1763 21.2282 20.6637C21.7404 20.1663 22.1365 19.5619 22.3882 18.8937C22.6734 18.1143 22.8288 17.2935 22.8482 16.4638C22.8482 15.4038 22.9082 15.0638 22.9082 12.3438C22.9082 9.62375 22.9082 9.28375 22.8482 8.22375ZM21.0482 16.3438C21.0409 16.9785 20.926 17.6075 20.7082 18.2038C20.5485 18.6389 20.2921 19.0322 19.9582 19.3538C19.6339 19.6843 19.2414 19.9402 18.8082 20.1038C18.2119 20.3215 17.583 20.4365 16.9482 20.4438C15.9482 20.4937 15.5782 20.5037 12.9482 20.5037C10.3182 20.5037 9.9482 20.5037 8.9482 20.4438C8.28909 20.4561 7.6328 20.3546 7.0082 20.1437C6.59398 19.9718 6.21956 19.7165 5.9082 19.3937C5.57629 19.0725 5.32305 18.6789 5.1682 18.2437C4.92406 17.6389 4.78865 16.9957 4.7682 16.3438C4.7682 15.3438 4.7082 14.9738 4.7082 12.3438C4.7082 9.71375 4.7082 9.34375 4.7682 8.34375C4.77269 7.69481 4.89115 7.0517 5.1182 6.44375C5.29425 6.02166 5.56447 5.64541 5.9082 5.34375C6.21202 4.99992 6.58749 4.72685 7.0082 4.54375C7.61775 4.32379 8.2602 4.20883 8.9082 4.20375C9.9082 4.20375 10.2782 4.14375 12.9082 4.14375C15.5382 4.14375 15.9082 4.14375 16.9082 4.20375C17.543 4.21103 18.1719 4.326 18.7682 4.54375C19.2226 4.7124 19.6305 4.9866 19.9582 5.34375C20.2859 5.65093 20.542 6.02648 20.7082 6.44375C20.9305 7.05268 21.0455 7.69553 21.0482 8.34375C21.0982 9.34375 21.1082 9.71375 21.1082 12.3438C21.1082 14.9738 21.0982 15.3438 21.0482 16.3438ZM12.9082 7.21375C11.894 7.21573 10.9032 7.51828 10.0609 8.08317C9.21855 8.64806 8.56258 9.44995 8.17584 10.3875C7.78909 11.3251 7.68893 12.3562 7.888 13.3507C8.08707 14.3451 8.57644 15.2583 9.29428 15.9747C10.0121 16.6912 10.9262 17.1788 11.9211 17.3759C12.9159 17.573 13.9469 17.4709 14.8837 17.0823C15.8205 16.6937 16.6211 16.0362 17.1843 15.1928C17.7476 14.3494 18.0482 13.3579 18.0482 12.3438C18.0495 11.6689 17.9174 11.0004 17.6594 10.3767C17.4015 9.75306 17.0228 9.18656 16.5451 8.7098C16.0674 8.23304 15.5002 7.85543 14.876 7.59868C14.2518 7.34193 13.5831 7.21111 12.9082 7.21375ZM12.9082 15.6737C12.2496 15.6737 11.6058 15.4784 11.0582 15.1125C10.5105 14.7466 10.0837 14.2266 9.83168 13.6181C9.57964 13.0096 9.5137 12.3401 9.64219 11.6941C9.77068 11.0481 10.0878 10.4548 10.5535 9.98908C11.0192 9.52338 11.6126 9.20622 12.2586 9.07773C12.9045 8.94925 13.5741 9.01519 14.1825 9.26723C14.791 9.51927 15.3111 9.94609 15.677 10.4937C16.0429 11.0413 16.2382 11.6851 16.2382 12.3438C16.2382 12.7811 16.1521 13.2141 15.9847 13.6181C15.8174 14.0221 15.5721 14.3892 15.2629 14.6984C14.9536 15.0076 14.5866 15.2529 14.1825 15.4203C13.7785 15.5876 13.3455 15.6737 12.9082 15.6737Z" fill="white"/>
</g>
</svg>
