<svg width="188" height="163" viewBox="0 0 188 163" fill="none" xmlns="http://www.w3.org/2000/svg">
<g id="Group">
<g id="Group_2">
<path id="Vector" d="M53.1001 33.7723C52.1894 32.4946 51.1416 31.5043 49.9523 30.7969C46.6144 28.7544 41.6981 28.6881 35.1903 30.598C29.5666 32.2515 23.47 35.4744 16.9002 40.2669C16.215 42.8267 15.6667 45.2009 15.2467 47.3849C14.8312 49.5689 14.6455 50.7449 14.6941 50.9173C14.7383 51.0632 14.8488 51.1693 15.0257 51.2312C15.2025 51.2931 15.3661 51.302 15.512 51.2577C16.0293 50.8554 16.887 50.1746 18.0762 49.2152C19.2655 48.2602 20.6272 47.2169 22.1657 46.0895C23.7043 44.9621 25.5965 43.7728 27.8513 42.5128C30.1016 41.2572 32.3077 40.2625 34.4652 39.5374L29.0936 56.7487C26.3702 58.2607 24.4249 59.7905 23.2666 61.3467C22.1038 62.9029 21.7148 64.3353 22.0994 65.6395C22.2718 66.232 22.7228 66.7492 23.4479 67.2002C24.1729 67.6511 25.0837 67.9253 26.1801 68.0137C25.3136 71.8866 24.7167 74.9681 24.3984 77.2493C24.0757 79.5306 24.0535 81.1355 24.3277 82.0639C24.5178 82.7182 24.7521 83.2045 25.0306 83.5229C25.3091 83.8412 25.7512 83.9119 26.3569 83.7351C26.6487 83.6511 26.914 83.4344 27.1439 83.094C27.3738 82.7536 27.5595 82.3778 27.7009 81.9666C27.8424 81.5599 28.1077 80.7376 28.4967 79.4997C28.8858 78.2618 29.1953 77.267 29.4296 76.511C29.5932 75.9805 29.5799 75.3925 29.3854 74.7382C29.3058 74.464 29.0538 74.1502 28.6294 73.792L29.938 67.7705C32.153 67.3947 33.6075 67.1074 34.2972 66.904C38.2187 65.7501 41.6849 64.1894 44.6824 62.222C47.6843 60.2547 50.1203 57.9601 51.9948 55.3472C53.8694 52.7344 55.0852 49.9447 55.6378 46.9737C56.1904 44.0072 56.0003 40.9389 55.0719 37.7778C54.6652 36.3852 54.002 35.05 53.0913 33.7723H53.1001ZM52.0612 44.0248C51.7826 45.7093 51.0664 47.5175 49.9125 49.4495C48.7586 51.3815 46.9813 53.2384 44.5763 55.0201C42.1712 56.8018 39.1339 58.2342 35.46 59.313C35.04 59.4368 34.5138 59.5694 33.8816 59.7064C33.2494 59.8479 32.5288 60.0115 31.7197 60.2016L32.6216 56.6382L37.1356 54.3171C37.6484 54.0519 37.8695 53.7822 37.7855 53.5081C37.6926 53.1898 37.476 53.0837 37.1444 53.1809L33.161 54.8654L36.101 44.6217C36.7288 42.4907 36.8791 40.877 36.5608 39.7806C36.4635 39.4446 36.3574 39.1661 36.2469 38.945C39.4787 37.9945 42.1579 37.3623 44.2889 37.0484C46.4198 36.7345 48.1441 36.8052 49.4615 37.265C50.7835 37.7248 51.6411 38.6399 52.0479 40.0105C52.3397 41.0008 52.3441 42.3404 52.0656 44.0248H52.0612Z" fill="white" stroke="white" stroke-width="10" stroke-linecap="round" stroke-linejoin="round"/>
<path id="Vector_2" d="M182.266 21.2737C181.223 22.8388 180.29 24.1386 179.463 25.1731C178.637 26.2032 177.792 27.083 176.921 27.8081C176.05 28.5332 175.188 29.0239 174.326 29.2759C173.884 29.4041 173.269 29.5191 172.478 29.6119C174.008 27.8346 175.197 26.1856 176.05 24.6603C176.903 23.1394 177.456 21.6495 177.708 20.1861C177.965 18.7272 177.885 17.2992 177.478 15.9065C177.204 14.9781 176.877 14.169 176.492 13.4794C176.108 12.7897 175.604 11.9497 174.98 10.9505C174.357 9.95132 173.986 9.25279 173.871 8.85489C173.734 8.39068 173.672 8.01931 173.68 7.74078L173.314 7.19698C172.734 7.09088 172.226 7.10414 171.784 7.23235C170.02 7.74962 169.29 9.37216 169.591 12.1044C168.229 15.0002 165.687 20.111 161.96 27.4412V27.4544C159.661 30.8189 157.88 32.6934 156.637 33.0604C155.421 33.4185 154.665 33.1002 154.374 32.1098C154.161 31.3936 154.228 30.2176 154.568 28.5818C154.909 26.946 155.457 25.3677 156.217 23.838C156.872 22.5691 157.314 21.6186 157.552 20.9908C157.787 20.3586 157.84 19.8236 157.712 19.3815C157.508 18.6874 157.185 18.0242 156.752 17.3964C156.314 16.7686 155.894 16.4105 155.479 16.3265C155.284 16.2912 154.97 16.3398 154.528 16.468C153.397 16.7996 150.766 17.9402 146.641 19.8855C146.968 18.599 147.079 17.7767 146.977 17.4141C146.858 17.0118 146.592 16.8748 146.172 16.9985C145.898 17.0781 145.638 17.2373 145.386 17.4716C144.718 17.9889 144.068 18.8908 143.445 20.1729C142.817 21.455 142.361 22.7725 142.074 24.1165C141.787 25.4605 141.751 26.5127 141.977 27.2732C142.176 27.9496 142.476 28.4094 142.879 28.657C143.281 28.9045 143.851 29.046 144.594 29.0814C144.316 30.0982 143.851 31.3538 143.224 32.826C142.052 34.6343 141.035 36.0977 140.182 37.2162C139.324 38.3391 138.418 39.3029 137.458 40.112C136.499 40.9211 135.504 41.4737 134.479 41.7787C133.493 42.0705 132.591 41.9556 131.782 41.4383C130.968 40.9211 130.38 40.0413 130.013 38.7945L129.779 38.0031C132.383 35.9341 134.51 33.949 136.154 32.0568C137.799 30.1645 138.917 28.4138 139.519 26.8089C140.116 25.1997 140.222 23.7319 139.833 22.4055C139.567 21.4992 139.077 20.9024 138.369 20.6194C137.662 20.3365 136.809 20.3365 135.823 20.6283C134.585 20.9908 133.281 21.7512 131.91 22.9095C130.539 24.0679 129.262 25.5666 128.068 27.4058C126.326 30.0938 125.208 32.49 124.708 34.5945C124.416 35.8324 124.328 37.088 124.43 38.3657C123.457 39.7539 122.652 40.9653 122.02 41.9821C121.37 43.0299 120.557 44.4093 119.58 46.1203C118.598 47.8268 117.674 49.4626 116.799 51.0277C115.923 52.5883 115.464 53.4106 115.419 53.4946C116.034 50.3115 116.706 47.4201 117.431 44.8116C118.156 42.2032 118.912 39.6699 119.695 37.2073C120.473 34.7448 120.99 33.0117 121.246 32.0081C121.498 31.0046 121.543 30.222 121.375 29.6517C121.083 28.6614 120.716 27.954 120.274 27.534C119.832 27.114 119.354 27.0123 118.85 27.2289C118.585 27.3306 118.328 27.6003 118.081 28.038C117.833 28.4757 117.546 29.1079 117.214 29.9258C116.883 30.7437 116.507 31.6279 116.078 32.5785C115.649 33.529 115.088 34.6431 114.394 35.9252C112.599 39.2013 110.835 41.907 109.102 44.0424C107.369 46.1777 106.21 47.3316 105.622 47.5041C105.056 47.6721 104.689 47.4687 104.521 46.8984C104.446 46.6464 104.442 46.3281 104.513 45.939L104.601 44.0247C106.268 41.4737 107.523 39.3339 108.372 37.6052C109.221 35.8766 109.805 34.4884 110.118 33.4317C110.437 32.3751 110.534 31.65 110.419 31.2477C110.233 30.6155 109.787 30.085 109.08 29.6473C108.372 29.214 107.736 29.0814 107.165 29.245C106.807 29.3511 106.281 29.8772 105.578 30.8277C104.875 31.7782 104.123 33.0471 103.314 34.6387C102.505 36.2303 101.723 38.1092 100.971 40.2756C100.458 41.8716 100.14 43.136 100.021 44.0777C99.9411 44.6923 99.9721 45.3687 100.096 46.0982C97.9826 49.3432 96.2318 51.1868 94.8613 51.5891C93.4333 52.0092 92.4916 51.4388 92.0318 49.8782C91.7533 48.9277 91.7223 48.0655 91.939 47.2919C92.1556 46.5182 92.5712 45.2935 93.1813 43.6091C93.7914 41.9291 94.0257 40.8371 93.8754 40.3286C93.8002 40.0766 93.6543 39.8069 93.4289 39.5152C93.2078 39.2234 92.9028 38.852 92.5181 38.3922C92.1335 37.9324 91.8152 37.5566 91.572 37.2604C92.2307 36.7918 92.6817 36.4248 92.9249 36.1595C93.168 35.8943 93.2299 35.5715 93.1194 35.1913C93.0531 34.957 92.8364 34.6343 92.4739 34.2143C92.1114 33.7943 91.687 33.4538 91.2006 33.1974C90.7143 32.941 90.2501 32.8747 89.8124 33.0029C88.1766 33.4848 86.0633 34.873 83.4814 37.1676C80.8951 39.4621 78.4369 42.5303 76.1026 46.3811C75.2405 47.871 74.6392 49.0426 74.2988 49.9003C73.9584 50.758 73.7904 51.5449 73.7992 52.2656C73.7992 52.5883 73.839 52.942 73.8965 53.3178C72.6851 55.3603 71.8495 56.753 71.403 57.4913C70.9123 58.3004 70.4215 58.9989 69.9352 59.5869C69.4489 60.1793 68.9404 60.5507 68.4188 60.7054C67.3886 61.0061 66.4646 60.8204 65.6379 60.1484C64.8111 59.4764 64.201 58.4639 63.8076 57.1155C63.6351 56.5275 63.4892 55.6521 63.3787 54.4938C66.3099 48.7994 68.3348 43.4676 69.4489 38.5027C70.5674 33.5378 70.6956 29.5854 69.8335 26.6542C69.555 25.7037 69.2853 25.0582 69.0244 24.7089C68.7636 24.3597 68.4099 24.2536 67.9722 24.3818C67.6141 24.4879 67.1764 24.8195 66.6592 25.3854C65.3726 26.747 64.1568 28.8294 63.0073 31.6279C61.8579 34.4309 60.8852 37.6008 60.0938 41.1421C59.298 44.6878 58.8338 48.0877 58.6968 51.346C58.5597 54.6043 58.8073 57.31 59.4395 59.4631C60.2221 62.1202 61.2743 64.1406 62.605 65.5244C63.9358 66.9082 65.3461 67.3813 66.836 66.9436C69.471 66.1699 72.0706 62.4827 74.6304 55.8997C75.0239 56.8591 75.5544 57.7477 76.222 58.5701C77.1327 59.6886 78.0523 60.5463 78.9763 61.1431C79.9047 61.74 80.5989 61.9743 81.0587 61.8372C82.0224 61.5543 83.0393 60.4711 84.1048 58.5877C85.1703 56.7044 86.7309 53.6052 88.7911 49.2902C88.5259 52.805 88.6364 55.3957 89.1271 57.0625C89.4366 58.1191 89.8434 58.8618 90.3474 59.2995C90.8514 59.7372 91.5145 59.8345 92.3324 59.5913C94.5341 58.9458 97.3238 55.1393 100.71 48.1893C101.21 49.3432 102.032 50.5635 103.186 51.85C104.641 53.4725 105.781 54.1622 106.599 53.9235C107.501 53.6582 108.942 51.9649 110.919 48.8392L115.119 42.4154C112.338 52.4203 110.693 59.3526 110.185 63.2122C110.092 63.7427 110.132 64.3175 110.313 64.9276C110.512 65.604 110.91 66.3291 111.516 67.0983C112.117 67.872 112.643 68.1948 113.081 68.0666C113.271 68.0091 113.465 67.7659 113.664 67.3282C113.868 66.8905 114.097 66.2849 114.363 65.5112C114.624 64.7331 114.929 63.8975 115.282 62.9911C115.411 62.6551 115.857 61.4836 116.622 59.4675C117.387 57.4559 118.514 54.7414 120.008 51.3239C121.432 48.0611 123.068 44.5729 124.894 40.8813C124.911 40.9476 124.925 41.0139 124.947 41.0802C125.69 43.6091 126.821 45.4438 128.338 46.5801C129.854 47.7163 131.547 48.0081 133.418 47.4599C135.557 46.8321 137.441 45.4483 139.068 43.3084C140.624 41.2659 142.132 38.5646 143.599 35.2179L143.639 35.3505C145.487 32.4945 146.681 29.5677 147.216 26.5702C147.631 26.358 148.228 26.0529 149.002 25.6683C149.776 25.2792 150.51 24.9123 151.204 24.5586C151.898 24.2049 152.521 23.8822 153.069 23.5815C152.353 25.2571 151.747 26.9062 151.257 28.5287C150.766 30.1513 150.457 31.6102 150.337 32.9056C150.218 34.201 150.288 35.3019 150.554 36.2082C151.005 37.7467 151.646 38.8387 152.473 39.4754C153.299 40.1164 154.153 40.3065 155.032 40.0457C155.788 39.8246 156.558 39.2587 157.34 38.3524C158.123 37.4461 158.927 36.301 159.75 34.9128C160.541 33.582 161.505 31.8092 162.641 29.5942C162.968 30.5182 163.309 31.2875 163.658 31.8711C164.171 32.7288 165.073 33.5202 166.355 34.2408C168.53 35.4345 170.603 35.744 172.575 35.1604C174.105 34.7094 175.732 33.4936 177.452 31.513C179.171 29.5323 180.989 26.8266 182.898 23.4003L182.275 21.2826L182.266 21.2737ZM63.8518 39.4754C64.5459 35.9385 65.377 33.4538 66.3453 32.0258C66.6326 31.6898 66.8404 31.5041 66.9686 31.4644C67.3046 31.3671 67.5434 31.5572 67.6849 32.0435C67.8705 32.6757 67.8882 33.6882 67.7423 35.0852C67.592 36.4823 67.2958 38.0916 66.8537 39.9175C66.4116 41.7434 65.881 43.4897 65.2665 45.1609C64.652 46.8321 63.9579 48.3618 63.1798 49.7588C62.9366 46.443 63.1577 43.0122 63.8518 39.4754ZM86.0899 48.9586C84.8785 51.5936 83.3665 53.8881 81.5494 55.8422C81.0498 56.3109 80.6829 56.5761 80.453 56.6469C80.0551 56.7662 79.6749 56.638 79.3167 56.2755C78.9586 55.913 78.6801 55.3913 78.4812 54.7149C77.9374 52.858 78.5652 50.7138 80.369 48.2822C82.1728 45.8506 85.4355 42.579 90.1528 38.4674C88.6541 42.8266 87.2968 46.3236 86.0899 48.9586ZM129.828 32.0037C130.212 30.7481 130.721 29.5986 131.366 28.5641C132.007 27.5296 132.684 26.6409 133.391 25.907C134.098 25.1731 134.642 24.7487 135.018 24.6382C135.46 24.51 135.752 24.6868 135.893 25.1731C136.03 25.6374 135.924 26.4641 135.58 27.6534C135.235 28.8426 134.549 30.1822 133.528 31.6766C132.507 33.1665 131.163 34.5591 129.492 35.8545C129.337 34.5503 129.447 33.2682 129.832 32.0081L129.828 32.0037ZM170.382 28.8869C169.153 27.8037 168.238 27.1007 167.641 26.7691C167.044 26.442 166.076 26.327 164.737 26.4199C167.765 20.9731 169.71 17.3213 170.577 15.46L172.5 19.912C172.571 20.0756 172.637 20.2392 172.695 20.4072C172.752 20.5752 172.814 20.7609 172.876 20.9731C173.398 22.746 173.424 24.2536 172.96 25.5003C172.496 26.747 171.634 27.8788 170.382 28.8869Z" fill="white" stroke="white" stroke-width="10" stroke-linecap="round" stroke-linejoin="round"/>
</g>
<g id="Group_3">
<path id="Vector_3" d="M87.0939 140.542C85.7941 141.828 84.7507 142.951 83.6189 143.972C80.6922 146.607 77.7521 149.229 74.7591 151.784C72.9022 153.372 70.254 152.558 69.7986 150.339C69.5731 149.242 70.0506 148.407 70.895 147.73C75.7405 143.857 80.2368 139.618 84.4545 135.059C85.2768 134.171 85.3697 133.463 84.9806 132.367C82.5711 125.59 78.9237 119.515 74.6176 113.798C74.2329 113.286 73.866 113.383 73.4062 113.511C67.7428 115.125 61.9644 115.894 56.0799 115.669C42.1756 115.138 29.8452 110.456 19.4468 101.181C10.3172 93.037 4.21614 82.9481 1.51043 70.9714C-1.7656 56.4613 0.307896 42.641 7.53196 29.6563C12.0636 21.5082 18.3725 15.0048 26.1978 9.87632C36.9145 2.85562 48.6393 -0.225873 61.3455 0.574345C73.3708 1.33035 84.1937 5.48175 93.6283 13.0241C101.79 19.5497 107.736 27.7331 111.503 37.486C114.39 44.9621 115.597 52.7123 115.252 60.71C115.243 60.9576 115.239 61.2096 115.243 61.4616C115.243 61.5191 115.283 61.5765 115.349 61.749C116.56 61.466 117.79 61.1831 119.014 60.8868C125.787 59.2466 132.631 58.0176 139.612 57.8451C144.714 57.7169 149.794 57.991 154.657 59.8037C157.133 60.7277 159.33 62.0629 160.785 64.3618C162.703 67.4035 162.425 70.6088 161.373 73.8274C160.44 76.679 158.901 79.2034 156.934 81.5643C157.093 81.8119 157.252 82.0683 157.416 82.3203C161.934 89.173 163.915 96.6844 163.375 104.877C163.017 110.301 161.594 115.439 159.251 120.311C158.636 121.593 158.393 122.884 158.287 124.259C157.818 130.245 155.625 135.515 151.606 139.98C151.036 140.612 150.196 141.205 149.387 141.386C147.694 141.766 146.673 140.993 145.934 139.149C144.042 140.926 142.141 142.686 140.288 144.49C140.081 144.693 140.041 145.184 140.09 145.515C140.633 148.99 140.823 152.479 140.43 155.976C140.253 157.55 139.992 159.128 139.612 160.666C139.205 162.298 137.547 163.125 135.934 162.66C134.329 162.196 133.613 160.857 134.033 159.159C134.771 156.192 134.908 153.177 134.78 150.135C134.771 149.892 134.7 149.654 134.638 149.295C133.051 150.489 131.583 151.687 130.023 152.744C125.345 155.914 120.628 159.031 115.924 162.161C114.717 162.965 113.47 163.058 112.25 162.209C111.193 161.475 111.012 160.419 111.224 159.216C111.958 155.069 111.627 150.944 110.897 146.837C110.879 146.727 110.791 146.629 110.707 146.475C108.969 147.912 107.325 149.402 105.548 150.715C100.348 154.556 95.0961 158.328 89.8615 162.125C88.9729 162.766 88.0091 162.983 86.9392 162.625C85.4271 162.121 84.6048 160.569 85.2282 159.11C87.0762 154.769 87.651 150.224 87.5095 145.56C87.4608 143.981 87.2575 142.403 87.1027 140.542H87.0939ZM66.8807 83.9473C69.6439 82.0373 72.4778 80.0567 75.3382 78.1114C75.9218 77.7135 75.8864 77.3864 75.5681 76.8205C69.6262 66.2143 62.6011 56.4083 54.1214 47.6722C49.0814 42.4774 43.6125 37.7734 37.6617 33.6441C32.5155 30.0719 27.0776 26.9992 21.3479 24.4615C20.8483 24.2404 20.3929 23.847 19.8049 24.5234C14.8356 30.2178 11.2722 36.6725 9.16776 43.9276C9.05723 44.3033 9.09702 44.8118 9.26503 45.1655C11.1528 49.1223 13.328 52.9112 16.0028 56.3994C18.536 59.6976 21.4717 62.5536 25.4064 64.0656C28.1387 65.1178 30.9549 66.0021 33.8021 66.6829C39.7352 68.1021 45.6108 69.6671 51.2035 72.143C55.545 74.0617 59.6433 76.3828 63.0564 79.7428C64.3385 81.0072 65.488 82.4087 66.8807 83.9517V83.9473ZM81.5056 72.9166C83.6808 70.4629 85.7808 68.1153 87.8455 65.7368C87.9781 65.582 87.9383 65.1488 87.8234 64.9322C84.4412 58.8045 82.5667 52.2127 81.7178 45.3025C80.7187 37.1942 78.3313 29.5192 74.5247 22.2863C71.8588 17.2197 68.5872 12.5909 64.5331 8.53673C64.2103 8.21399 63.7108 7.92219 63.2686 7.87356C50.8852 6.55608 39.5141 9.38116 29.1688 16.309C28.0679 17.0473 27.029 17.8829 25.8927 18.7229C50.5934 30.4786 68.0523 49.4318 81.5056 72.9122V72.9166ZM60.0589 87.2542L60.1606 86.8387C59.0156 85.7466 57.9324 84.5839 56.721 83.5715C53.1443 80.5872 49.0018 78.5624 44.6161 77.1565C39.744 75.5958 34.7747 74.3447 29.8364 73.0051C25.685 71.8821 21.6352 70.5381 18.0453 68.0932C13.8364 65.2284 10.6621 61.3909 7.87238 57.1997C7.69554 56.9344 7.51427 56.6691 7.20922 56.2226C7.01469 60.2149 7.29764 63.9109 8.00943 67.5671C9.78671 76.6967 13.7657 84.7519 19.9508 91.7019C20.1895 91.9715 20.6095 92.1882 20.9632 92.2235C31.3086 93.2581 41.5611 92.8425 51.6235 90.0086C54.4707 89.2084 57.2515 88.1782 60.0634 87.2542H60.0589ZM101.029 96.1229C102.846 95.672 104.416 95.3183 105.963 94.8939C117.781 91.6532 129.068 87.1702 139.364 80.4236C143.065 78.0009 146.527 75.2687 149.047 71.5505C151.071 68.5663 150.333 66.7581 146.818 66.0065C142.791 65.1444 138.728 65.4052 134.691 65.8606C127.901 66.6298 121.26 68.1905 114.708 70.1225C114.164 70.2817 113.895 70.5425 113.766 71.1084C111.914 79.1371 108.514 86.4408 103.505 92.9884C102.753 93.9743 101.966 94.9337 101.025 96.1229H101.029ZM75.9572 10.9772C76.0235 11.1894 76.0279 11.2557 76.0589 11.3088C76.1782 11.49 76.3064 11.6713 76.4302 11.8481C82.8717 21.1501 86.8065 31.438 88.4644 42.6012C89.0569 46.5846 89.5741 50.5769 90.8872 54.4055C91.4177 55.9485 92.0411 57.4605 92.6733 59.1096C92.912 58.8487 93.0049 58.7691 93.0668 58.6719C97.1917 52.3055 100.6 45.5943 103.138 38.4321C103.536 37.3092 103.421 36.4559 102.904 35.4523C98.8673 27.596 93.2702 21.1192 85.9444 16.1675C82.8585 14.0852 79.5825 12.361 75.9572 10.9772ZM141.805 97.5509C141.69 98.0328 141.619 98.2937 141.566 98.5545C141.274 100.053 141.058 101.565 140.691 103.042C138.984 109.952 135.947 116.283 132.105 122.243C131.641 122.959 131.583 123.45 132.034 124.237C133.387 126.584 134.691 128.967 135.832 131.425C136.862 133.64 137.649 135.97 138.564 138.305C138.67 138.234 138.812 138.172 138.913 138.07C144.148 133.052 148.821 127.583 152.331 121.195C152.526 120.841 152.619 120.359 152.583 119.957C152.499 118.998 152.345 118.038 152.15 117.092C150.961 111.261 148.171 106.177 144.74 101.402C143.834 100.142 142.862 98.9347 141.805 97.5509ZM113.868 135.647C117.529 131.916 120.88 128.048 123.935 123.918C124.399 123.291 124.443 122.893 123.97 122.247C120.013 116.814 115.442 111.946 110.455 107.459C109.756 106.831 107.944 107.348 107.572 108.223C106.317 111.208 105.066 114.196 103.748 117.154C103.496 117.72 103.536 118.047 103.876 118.564C106.259 122.185 108.664 125.797 110.897 129.511C112.047 131.421 112.856 133.534 113.859 135.647H113.868ZM100.326 123.428C100.132 123.702 100.026 123.852 99.9195 124.002C97.4525 127.455 95.0165 130.926 92.4965 134.339C92.019 134.989 91.8864 135.502 92.072 136.262C93.2038 140.997 93.6283 145.794 93.1685 150.653C93.0933 151.466 93.0182 152.28 92.9386 153.098C93.0889 153.098 93.1287 153.111 93.1464 153.098C98.6197 149.251 103.832 145.078 108.748 140.537C108.925 140.374 109.009 139.918 108.921 139.675C108.386 138.216 107.833 136.757 107.21 135.334C105.375 131.151 103.045 127.252 100.326 123.432V123.428ZM29.4429 100.009C29.6993 100.182 29.938 100.376 30.2077 100.518C33.0284 101.985 35.7827 103.621 38.7006 104.863C44.7177 107.423 51.0576 108.582 57.6008 108.586C57.9678 108.586 58.4231 108.458 58.6884 108.223C61.3985 105.836 63.2598 102.931 63.7638 99.3017C64.0423 97.3166 63.9362 95.336 63.2465 93.3598C52.4193 97.9975 41.1411 99.9074 29.4429 100.009ZM117.538 154.543C117.807 154.406 117.953 154.353 118.072 154.265C123.037 150.639 127.989 147.001 132.967 143.393C133.542 142.978 133.644 142.575 133.471 141.917C132.269 137.341 130.452 133.017 128.17 128.883C128.091 128.737 127.954 128.618 127.812 128.446C127.299 129.091 126.87 129.71 126.371 130.263C123.051 133.914 119.713 137.544 116.401 141.2C116.167 141.461 115.897 141.903 115.964 142.186C116.941 146.201 117.586 150.25 117.533 154.543H117.538ZM68.658 107.41C74.6795 106.097 80.3119 103.665 85.5377 100.261C86.024 99.9428 85.8914 99.6023 85.7366 99.2221C84.2423 95.5217 82.7701 91.8124 81.2404 88.1296C80.6612 86.7325 79.9494 85.393 79.3437 84.1329C76.2534 86.1003 73.2603 88.0235 70.2407 89.898C69.6969 90.2385 69.8605 90.5701 69.9843 90.9989C70.9525 94.3412 71.3902 97.7455 70.5944 101.167C70.1036 103.272 69.3211 105.31 68.658 107.414V107.41ZM91.8643 95.2962C96.5683 90.9635 100.22 86.0384 103.019 80.3706C98.8982 78.0451 95.3879 75.083 92.355 71.5107C92.2135 71.6301 92.1118 71.6964 92.0323 71.7848C89.7687 74.1545 87.5227 76.5419 85.237 78.8895C84.848 79.2918 84.9806 79.5527 85.1575 79.9417C86.7402 83.399 88.3318 86.8563 89.8748 90.3357C90.5777 91.9273 91.1746 93.5631 91.8643 95.2962ZM116.764 105.323C120.411 109.355 124.205 113.546 128.011 117.755C131.751 111.473 134.66 104.81 135.735 97.5996C129.346 100.199 122.984 102.79 116.764 105.319V105.323ZM107.152 47.7253C106.976 47.9817 106.892 48.0701 106.847 48.1762C104.155 54.1712 100.954 59.8788 97.1121 65.2151C96.8159 65.6263 96.8424 65.9225 97.1961 66.2673C99.1148 68.1374 100.985 70.0562 102.948 71.8777C103.726 72.5983 104.708 73.1067 105.698 73.7787C108.443 65.1665 108.903 56.6117 107.161 47.7253H107.152ZM156.434 110.867C158.711 102.021 157.681 93.6958 152.955 85.9412C150.139 88.1031 147.433 90.1854 144.683 92.2987C149.573 97.8825 153.773 103.882 156.434 110.872V110.867ZM79.7726 111.172C83.8975 116.663 87.2354 122.327 89.6935 128.53C89.8527 128.415 89.9455 128.379 89.9897 128.308C92.0588 125.196 94.119 122.075 96.2013 118.967C96.5064 118.511 96.3119 118.242 96.0112 117.923C93.898 115.673 91.8024 113.396 89.6626 111.172C89.384 110.885 88.8623 110.699 88.4467 110.695C86.2937 110.655 84.1406 110.655 81.9875 110.717C81.3067 110.735 80.6303 110.991 79.7682 111.177L79.7726 111.172ZM101.051 109.103C99.4066 109.386 98.0051 109.629 96.4578 109.899C97.4614 110.991 98.3367 111.946 99.3182 113.016C99.893 111.716 100.428 110.514 101.051 109.103Z" fill="white"/>
<path id="Vector_4" d="M66.8854 83.9515C65.4927 82.4085 64.3432 81.007 63.0611 79.7426C59.6525 76.3826 55.5541 74.0615 51.2082 72.1427C45.6111 69.6714 39.7399 68.1019 33.8068 66.6827C30.9596 66.0018 28.1434 65.1176 25.4111 64.0654C21.4764 62.549 18.5408 59.693 16.0075 56.3992C13.3327 52.9154 11.1531 49.1265 9.26973 45.1653C9.10172 44.8116 9.06636 44.3031 9.17246 43.9273C11.2813 36.6723 14.8403 30.2175 19.8096 24.5232C20.3976 23.8468 20.853 24.2402 21.3526 24.4613C27.0823 26.999 32.5202 30.0672 37.6664 33.6439C43.6172 37.7732 49.0861 42.4772 54.1261 47.672C62.6013 56.4081 69.6309 66.2141 75.5728 76.8203C75.8911 77.3906 75.9265 77.7133 75.3429 78.1112C72.4825 80.0565 69.6441 82.0371 66.8854 83.9471V83.9515Z" fill="#FAB216"/>
<path id="Vector_5" d="M81.5057 72.9167C68.0568 49.4363 50.5979 30.4787 25.8928 18.7274C27.029 17.8874 28.0636 17.0518 29.1688 16.3135C39.5142 9.38122 50.8852 6.56057 63.2687 7.87805C63.7108 7.92669 64.2104 8.21406 64.5331 8.54122C68.5829 12.5954 71.8589 17.2287 74.5248 22.2908C78.3314 29.5193 80.7188 37.1987 81.7179 45.307C82.5712 52.2172 84.4413 58.809 87.8234 64.9366C87.9428 65.1533 87.9782 65.591 87.8456 65.7413C85.7809 68.1198 83.6809 70.4674 81.5057 72.9211V72.9167Z" fill="#FDBA21"/>
<path id="Vector_6" d="M60.0634 87.2542C57.2516 88.1782 54.4707 89.2083 51.6235 90.0085C41.5611 92.838 31.3086 93.258 20.9633 92.2235C20.6096 92.1881 20.1896 91.9715 19.9509 91.7018C13.7657 84.7518 9.78677 76.6966 8.00949 67.567C7.29769 63.9108 7.01474 60.2148 7.20927 56.2225C7.51433 56.6691 7.69559 56.9343 7.87243 57.1996C10.6621 61.3908 13.8365 65.2283 18.0454 68.0932C21.6353 70.538 25.6894 71.882 29.8364 73.005C34.7748 74.3446 39.7485 75.5958 44.6161 77.1564C49.0018 78.5623 53.1444 80.5872 56.7211 83.5714C57.9324 84.5838 59.02 85.7466 60.1607 86.8386L60.059 87.2542H60.0634Z" fill="#FAB216"/>
<path id="Vector_7" d="M101.033 96.1231C101.975 94.9383 102.762 93.9745 103.513 92.9886C108.523 86.441 111.922 79.1373 113.775 71.1086C113.907 70.5427 114.177 70.2819 114.716 70.1227C121.269 68.1907 127.905 66.63 134.7 65.8608C138.732 65.4054 142.795 65.1401 146.827 66.0067C150.342 66.7627 151.08 68.5665 149.055 71.5507C146.535 75.2689 143.073 78.0011 139.373 80.4238C129.076 87.166 117.789 91.649 105.972 94.8941C104.42 95.3185 102.85 95.6722 101.038 96.1231H101.033Z" fill="#552084"/>
<path id="Vector_8" d="M75.9619 10.9727C79.5828 12.3565 82.8632 14.0807 85.9492 16.163C93.2793 21.1146 98.872 27.5915 102.908 35.4478C103.426 36.4514 103.541 37.3091 103.143 38.4276C100.605 45.5854 97.1964 52.301 93.0715 58.6674C93.0096 58.7646 92.9124 58.8442 92.6781 59.1051C92.0503 57.456 91.4225 55.944 90.8919 54.401C89.5789 50.5724 89.0616 46.5801 88.4692 42.5967C86.8113 31.4335 82.8765 21.1456 76.435 11.8436C76.3112 11.6623 76.183 11.4855 76.0636 11.3042C76.0327 11.2556 76.0238 11.1849 75.9619 10.9727Z" fill="#FAB216"/>
<path id="Vector_9" d="M141.814 97.5508C142.87 98.9346 143.847 100.142 144.749 101.402C148.18 106.176 150.97 111.261 152.159 117.092C152.354 118.038 152.504 118.997 152.592 119.957C152.628 120.364 152.539 120.841 152.34 121.195C148.83 127.583 144.157 133.052 138.922 138.07C138.816 138.172 138.679 138.234 138.573 138.304C137.658 135.974 136.871 133.645 135.841 131.425C134.7 128.971 133.392 126.584 132.043 124.236C131.592 123.45 131.65 122.959 132.114 122.243C135.956 116.283 138.993 109.956 140.7 103.042C141.067 101.565 141.283 100.049 141.575 98.5544C141.628 98.2891 141.699 98.0283 141.814 97.5508Z" fill="#552084"/>
<path id="Vector_10" d="M113.877 135.647C112.869 133.534 112.06 131.421 110.915 129.511C108.682 125.797 106.273 122.185 103.894 118.564C103.554 118.051 103.514 117.724 103.766 117.154C105.079 114.196 106.335 111.207 107.59 108.223C107.962 107.343 109.774 106.83 110.473 107.458C115.46 111.946 120.031 116.813 123.988 122.247C124.461 122.892 124.417 123.29 123.953 123.918C120.898 128.047 117.547 131.916 113.886 135.647H113.877Z" fill="#552084"/>
<path id="Vector_11" d="M100.335 123.428C103.054 127.247 105.384 131.147 107.219 135.329C107.842 136.753 108.399 138.207 108.93 139.671C109.018 139.914 108.938 140.369 108.757 140.533C103.841 145.073 98.6285 149.247 93.1552 153.093C93.1331 153.106 93.0977 153.093 92.9474 153.093C93.0225 152.271 93.0977 151.457 93.1773 150.648C93.6371 145.79 93.2127 140.993 92.0809 136.258C91.8996 135.497 92.0278 134.984 92.5053 134.334C95.0253 130.921 97.4613 127.451 99.9283 123.998C100.034 123.848 100.14 123.702 100.335 123.423V123.428Z" fill="#552084"/>
<path id="Vector_12" d="M29.4521 100.005C41.1548 99.9031 52.4286 97.9932 63.2558 93.3555C63.9499 95.3317 64.0516 97.3168 63.7731 99.2974C63.2646 102.927 61.4078 105.832 58.6977 108.219C58.4324 108.453 57.977 108.582 57.6101 108.582C51.0669 108.582 44.727 107.423 38.7099 104.859C35.792 103.617 33.0421 101.977 30.217 100.513C29.9473 100.372 29.7042 100.177 29.4521 100.005Z" fill="#FAB216"/>
<path id="Vector_13" d="M117.542 154.539C117.595 150.242 116.945 146.192 115.972 142.182C115.906 141.904 116.175 141.457 116.41 141.196C119.721 137.54 123.059 133.91 126.379 130.258C126.879 129.706 127.308 129.091 127.821 128.441C127.962 128.614 128.099 128.733 128.179 128.879C130.46 133.013 132.277 137.337 133.48 141.912C133.652 142.567 133.55 142.969 132.976 143.389C127.997 146.997 123.041 150.635 118.081 154.261C117.962 154.349 117.816 154.398 117.546 154.539H117.542Z" fill="#552084"/>
<path id="Vector_14" d="M68.6624 107.405C69.3255 105.305 70.1036 103.263 70.5988 101.158C71.399 97.7364 70.9569 94.3366 69.9887 90.9899C69.8649 90.5654 69.6969 90.2294 70.2451 89.889C73.2647 88.01 76.2578 86.0869 79.3481 84.1239C79.9494 85.3883 80.6656 86.7279 81.2448 88.1206C82.7745 91.8033 84.2467 95.5126 85.741 99.2131C85.8958 99.5933 86.0328 99.9337 85.5421 100.252C80.3163 103.656 74.6839 106.088 68.6624 107.401V107.405Z" fill="#FAB216"/>
<path id="Vector_15" d="M91.8687 95.2917C91.179 93.563 90.5822 91.9228 89.8792 90.3312C88.3407 86.8518 86.7491 83.3945 85.1619 79.9372C84.9851 79.5482 84.848 79.2873 85.2415 78.885C87.5272 76.5374 89.7731 74.15 92.0367 71.7803C92.1163 71.6963 92.218 71.6256 92.3595 71.5062C95.3923 75.0785 98.9027 78.0406 103.023 80.3661C100.225 86.0339 96.5683 90.9546 91.8687 95.2917Z" fill="#FAB216"/>
<path id="Vector_16" d="M116.772 105.314C122.993 102.781 129.355 100.195 135.743 97.5952C134.669 104.802 131.764 111.469 128.02 117.751C124.213 113.542 120.42 109.351 116.772 105.319V105.314Z" fill="#552084"/>
<path id="Vector_17" d="M107.161 47.7163C108.903 56.6027 108.443 65.1575 105.697 73.7698C104.707 73.0978 103.73 72.5894 102.948 71.8687C100.985 70.0472 99.11 68.1285 97.1957 66.2584C96.842 65.9135 96.8155 65.6173 97.1117 65.2061C100.958 59.8699 104.159 54.1623 106.847 48.1673C106.896 48.0656 106.975 47.9772 107.152 47.7163H107.161Z" fill="#FAB216"/>
<path id="Vector_18" d="M156.443 110.858C153.781 103.869 149.581 97.8691 144.691 92.2853C147.441 90.172 150.147 88.0941 152.963 85.9277C157.689 93.6823 158.72 102.007 156.443 110.854V110.858Z" fill="#552084"/>
<path id="Vector_19" d="M79.7815 111.163C80.6436 110.978 81.32 110.726 82.0009 110.704C84.154 110.642 86.307 110.642 88.4601 110.682C88.8757 110.69 89.3974 110.872 89.6759 111.159C91.8201 113.383 93.9113 115.66 96.0246 117.91C96.3208 118.228 96.5197 118.498 96.2147 118.953C94.1324 122.061 92.0721 125.183 90.0031 128.295C89.9588 128.362 89.866 128.401 89.7068 128.516C87.2487 122.313 83.9108 116.65 79.7859 111.159L79.7815 111.163Z" fill="#552084"/>
<path id="Vector_20" d="M101.06 109.094C100.437 110.5 99.9062 111.707 99.327 113.007C98.3455 111.942 97.4701 110.982 96.4666 109.89C98.0095 109.625 99.4154 109.382 101.06 109.094Z" fill="#552084"/>
</g>
<g id="Group_4">
<path id="Vector_21" d="M67.2566 127.5L66.5006 128.707C65.6385 128.158 64.7808 127.995 63.9319 128.211C63.2157 128.393 62.6719 128.791 62.305 129.409C61.938 130.024 61.8452 130.692 62.0264 131.412C62.1546 131.912 62.3757 132.332 62.6896 132.663C63.0079 132.999 63.3925 133.225 63.8435 133.344C64.2989 133.464 64.7675 133.464 65.2538 133.34C65.6694 133.234 66.0275 133.061 66.3326 132.818C66.6376 132.575 66.9427 132.199 67.2522 131.686L68.4768 132.451C68.0612 133.132 67.6324 133.64 67.1903 133.976C66.7482 134.312 66.2132 134.556 65.581 134.719C64.4138 135.015 63.366 134.887 62.4332 134.339C61.5003 133.786 60.8902 132.933 60.594 131.775C60.4039 131.028 60.4039 130.316 60.594 129.648C60.7841 128.981 61.1511 128.388 61.6904 127.875C62.2342 127.363 62.8664 127.013 63.5959 126.828C64.2149 126.668 64.8427 126.651 65.4837 126.766C66.1248 126.881 66.7128 127.128 67.2477 127.504L67.2566 127.5Z" fill="white"/>
<path id="Vector_22" d="M70.4622 125.28L71.9124 124.913L76.7048 131.686L75.2193 132.062L74.2379 130.665L71.174 131.443L70.9574 133.145L69.4719 133.521L70.4622 125.276V125.28ZM71.7002 127.084L71.3465 129.918L73.3536 129.409L71.6957 127.084H71.7002Z" fill="white"/>
</g>
<g id="Group_5">
<path id="Vector_23" d="M53.1095 34.0418C52.1987 32.7686 51.1509 31.7827 49.9661 31.0841C46.6326 29.0548 41.7163 28.993 35.2085 30.9029C29.5848 32.5564 23.4837 35.7705 16.9096 40.5541C16.2243 43.1051 15.6672 45.4659 15.2472 47.6411C14.8272 49.8163 14.6416 50.9879 14.6902 51.1559C14.7344 51.3018 14.8449 51.4079 15.0218 51.4698C15.1986 51.5317 15.3622 51.5405 15.5081 51.4963C16.0298 51.094 16.883 50.4131 18.0723 49.4626C19.2616 48.5076 20.6277 47.4687 22.1663 46.3457C23.7048 45.2228 25.6014 44.0335 27.8562 42.7779C30.111 41.5223 32.3127 40.532 34.4746 39.8069L29.0808 56.9519C26.353 58.4595 24.4122 59.9892 23.245 61.5366C22.0822 63.0884 21.6932 64.512 22.0734 65.8118C22.2458 66.3998 22.6968 66.9171 23.4174 67.3636C24.1425 67.8101 25.0532 68.0798 26.1497 68.1682C25.2787 72.0278 24.6774 75.0917 24.3547 77.3641C24.032 79.6365 24.0054 81.2326 24.2751 82.1566C24.4652 82.8065 24.6995 83.2928 24.9736 83.6067C25.2478 83.925 25.6899 83.9957 26.3 83.8145C26.5918 83.7261 26.857 83.5138 27.0869 83.1734C27.3168 82.833 27.5025 82.4572 27.644 82.0504C27.7855 81.6437 28.0551 80.8258 28.4442 79.5923C28.8333 78.3588 29.1472 77.3685 29.3815 76.6169C29.5451 76.0908 29.5318 75.5028 29.3417 74.8529C29.2621 74.5788 29.0101 74.2649 28.5857 73.9112L29.9032 67.9162C32.1181 67.5404 33.5727 67.2486 34.2624 67.0453C38.1883 65.8914 41.65 64.3351 44.6519 62.3678C47.6538 60.4048 50.0943 58.1191 51.9732 55.5151C53.8522 52.911 55.0724 50.1302 55.6251 47.1769C56.1821 44.2236 55.9964 41.1686 55.0724 38.0208C54.6657 36.637 54.0069 35.3063 53.0962 34.0374L53.1095 34.0418ZM52.0572 44.2501C51.7743 45.9301 51.0581 47.7295 49.8997 49.6527C48.7414 51.5759 46.9641 53.4283 44.5547 55.2056C42.1496 56.9829 39.1079 58.4109 35.4339 59.4896C35.0139 59.6134 34.4878 59.7461 33.8556 59.8831C33.2234 60.0246 32.5028 60.1882 31.6937 60.3827L32.6 56.8326L37.1184 54.5159C37.6312 54.2506 37.8523 53.981 37.7683 53.7068C37.6754 53.3929 37.4632 53.2824 37.1272 53.3841L33.1438 55.0685L36.0971 44.8647C36.7293 42.7425 36.8841 41.1333 36.5613 40.0413C36.4641 39.7053 36.358 39.4267 36.2474 39.2101C39.4792 38.2596 42.1584 37.6273 44.2894 37.309C46.4204 36.9907 48.1446 37.0614 49.4621 37.5168C50.7795 37.9722 51.6417 38.8829 52.044 40.249C52.3358 41.235 52.3358 42.5701 52.0572 44.2457V44.2501Z" fill="#552084" stroke="#552084" stroke-linecap="round" stroke-linejoin="round"/>
<path id="Vector_24" d="M182.267 21.424C181.219 22.9846 180.286 24.28 179.459 25.3101C178.633 26.3403 177.784 27.2156 176.913 27.9363C176.042 28.6569 175.175 29.1476 174.318 29.3996C173.876 29.5279 173.261 29.6428 172.465 29.7401C173.995 27.9672 175.189 26.3226 176.042 24.8061C176.895 23.2897 177.452 21.8042 177.709 20.3497C177.965 18.8951 177.89 17.476 177.483 16.0922C177.214 15.1682 176.886 14.3635 176.502 13.6783C176.117 12.993 175.613 12.1574 174.994 11.1627C174.371 10.1723 174.004 9.4738 173.884 9.0759C173.747 8.6161 173.686 8.24473 173.694 7.97063L173.327 7.42683C172.748 7.32515 172.24 7.33399 171.802 7.46662C170.038 7.98389 169.304 9.60201 169.6 12.3166C168.239 15.2035 165.688 20.2922 161.948 27.5914V27.6047C159.644 30.9559 157.862 32.826 156.616 33.1929C155.4 33.5511 154.644 33.2372 154.357 32.2513C154.149 31.5395 154.215 30.3679 154.555 28.7409C154.896 27.1139 155.449 25.54 156.209 24.0148C156.863 22.7503 157.31 21.8042 157.549 21.1764C157.787 20.5486 157.84 20.0137 157.712 19.5716C157.509 18.8775 157.19 18.2187 156.757 17.5953C156.324 16.972 155.899 16.6183 155.488 16.5343C155.294 16.4989 154.98 16.5475 154.538 16.6758C153.406 17.0073 150.775 18.148 146.651 20.0888C146.982 18.8067 147.093 17.9888 146.987 17.6307C146.872 17.2328 146.602 17.0958 146.182 17.2195C145.908 17.2991 145.647 17.4583 145.395 17.6882C144.727 18.2055 144.077 19.1029 143.45 20.3806C142.822 21.6583 142.362 22.967 142.075 24.3066C141.783 25.6461 141.748 26.6939 141.973 27.45C142.172 28.122 142.468 28.5818 142.875 28.8249C143.277 29.0725 143.848 29.214 144.586 29.2449C144.307 30.2573 143.839 31.5085 143.211 32.9763C142.035 34.7757 141.018 36.2347 140.165 37.3532C139.307 38.4717 138.401 39.4311 137.441 40.2402C136.482 41.0492 135.487 41.6019 134.457 41.9025C133.471 42.1943 132.569 42.0793 131.76 41.5665C130.947 41.0536 130.359 40.1783 129.996 38.9404L129.766 38.1534C132.375 36.0888 134.501 34.1125 136.146 32.2247C137.791 30.3413 138.914 28.595 139.515 26.9946C140.116 25.3941 140.222 23.9308 139.833 22.6089C139.568 21.707 139.082 21.1145 138.37 20.8316C137.658 20.5486 136.814 20.553 135.828 20.8448C134.59 21.2074 133.286 21.9678 131.915 23.1217C130.545 24.2756 129.262 25.7699 128.069 27.6047C126.327 30.2839 125.204 32.6713 124.7 34.7669C124.404 36.0003 124.315 37.2515 124.417 38.5204C123.444 39.9042 122.635 41.1111 122.007 42.1236C121.357 43.1669 120.54 44.5419 119.558 46.244C118.577 47.9461 117.648 49.5731 116.773 51.1337C115.897 52.69 115.438 53.5079 115.393 53.5919C116.012 50.4219 116.689 47.5394 117.418 44.9442C118.148 42.349 118.908 39.8246 119.691 37.3709C120.473 34.9172 120.995 33.1929 121.247 32.1938C121.499 31.1946 121.543 30.4121 121.38 29.8462C121.088 28.8603 120.725 28.1573 120.283 27.7417C119.841 27.3217 119.368 27.2245 118.86 27.4411C118.594 27.5428 118.338 27.8125 118.09 28.2502C117.843 28.6879 117.555 29.3156 117.224 30.1291C116.892 30.9426 116.512 31.8268 116.088 32.7729C115.659 33.7191 115.097 34.8332 114.399 36.1064C112.599 39.3692 110.831 42.0661 109.098 44.197C107.365 46.3236 106.202 47.4731 105.614 47.6455C105.048 47.8135 104.681 47.6101 104.513 47.0442C104.438 46.7922 104.438 46.4739 104.504 46.0893L104.593 44.1838C106.264 41.6416 107.524 39.5107 108.373 37.7909C109.222 36.0711 109.805 34.6828 110.128 33.6351C110.446 32.5828 110.548 31.8578 110.429 31.4599C110.243 30.8321 109.796 30.3016 109.089 29.8727C108.382 29.4439 107.745 29.3112 107.179 29.4748C106.821 29.5809 106.295 30.107 105.592 31.0531C104.889 31.9993 104.133 33.2681 103.324 34.8509C102.51 36.4336 101.728 38.3082 100.972 40.4656C100.459 42.0528 100.136 43.3128 100.017 44.2501C99.9373 44.8646 99.9683 45.5366 100.088 46.2617C97.9699 49.4979 96.2192 51.3327 94.8442 51.735C93.4162 52.155 92.4745 51.5891 92.0191 50.0329C91.7406 49.0868 91.7141 48.2291 91.9307 47.4598C92.1474 46.6905 92.5629 45.4659 93.1775 43.7947C93.792 42.1236 94.0263 41.0315 93.876 40.5275C93.8009 40.2755 93.6549 40.0058 93.4339 39.7185C93.2128 39.4311 92.9078 39.0553 92.5232 38.5999C92.1385 38.1446 91.8246 37.7688 91.577 37.477C92.2358 37.0083 92.6867 36.6414 92.9299 36.3806C93.1731 36.1153 93.2349 35.7925 93.1244 35.4167C93.0581 35.1869 92.8415 34.8641 92.4789 34.4441C92.1164 34.0241 91.692 33.6881 91.2057 33.4317C90.7193 33.1753 90.2551 33.1134 89.8174 33.2416C88.1816 33.7235 86.0684 35.1073 83.482 37.393C80.8957 39.6787 78.4287 42.7425 76.09 46.5712C75.2278 48.0567 74.6222 49.2238 74.2817 50.0771C73.9413 50.9304 73.7689 51.7129 73.7777 52.4291C73.7777 52.7474 73.8175 53.1011 73.875 53.4769C72.6592 55.5106 71.8236 56.8988 71.3727 57.6327C70.8775 58.4374 70.3912 59.1359 69.9004 59.7239C69.4097 60.3119 68.9057 60.6833 68.3796 60.838C67.3495 61.1387 66.4255 60.9574 65.6031 60.2854C64.7808 59.6178 64.1707 58.6098 63.7772 57.2658C63.6048 56.6778 63.4633 55.8068 63.3528 54.6529C66.2928 48.9807 68.3221 43.6709 69.4451 38.7237C70.568 33.7765 70.7007 29.8462 69.843 26.9283C69.5644 25.9821 69.2947 25.3411 69.0339 24.9918C68.7731 24.647 68.4238 24.5409 67.9817 24.6691C67.6236 24.7752 67.1859 25.1068 66.6686 25.6727C65.3821 27.0299 64.1619 29.1034 63.008 31.8931C61.8541 34.6829 60.8814 37.8395 60.0812 41.372C59.281 44.9044 58.8123 48.2866 58.6709 51.5316C58.5294 54.7767 58.7726 57.4692 59.4003 59.609C60.1785 62.2528 61.2307 64.2644 62.557 65.6393C63.8833 67.0143 65.2937 67.4873 66.7836 67.0497C69.4185 66.276 72.0226 62.602 74.5912 56.0456C74.9847 56.9961 75.5108 57.8847 76.1784 58.7026C77.0847 59.8168 78.0043 60.67 78.9327 61.2624C79.8611 61.8549 80.5553 62.0848 81.0151 61.9521C81.9789 61.6692 82.9957 60.5904 84.0656 58.7159C85.1311 56.8414 86.7006 53.751 88.7652 49.4537C88.4955 52.9508 88.6016 55.5327 89.088 57.1906C89.3974 58.2428 89.7998 58.9812 90.3038 59.4144C90.8078 59.8477 91.4665 59.945 92.2844 59.7062C94.4817 59.0607 97.2802 55.2674 100.676 48.344C101.175 49.4935 101.993 50.7049 103.147 51.9826C104.602 53.5963 105.738 54.2815 106.556 54.0428C107.458 53.7775 108.899 52.0887 110.88 48.9762L115.088 42.5789C112.294 52.5396 110.641 59.4454 110.128 63.2873C110.031 63.8178 110.075 64.3837 110.252 64.9938C110.451 65.6659 110.849 66.3865 111.45 67.1558C112.051 67.925 112.573 68.2433 113.015 68.1151C113.205 68.0577 113.4 67.8145 113.603 67.3768C113.806 66.9435 114.036 66.3379 114.301 65.5642C114.562 64.7905 114.872 63.9549 115.221 63.053C115.349 62.717 115.8 61.5498 116.565 59.5471C117.334 57.5443 118.466 54.8386 119.96 51.4388C121.388 48.1893 123.029 44.7143 124.859 41.036C124.877 41.1023 124.89 41.1686 124.912 41.2305C125.65 43.7505 126.778 45.572 128.299 46.6994C129.815 47.8268 131.508 48.1185 133.374 47.5659C135.514 46.9381 137.402 45.5587 139.033 43.4233C140.589 41.3852 142.106 38.6972 143.573 35.3637L143.613 35.4963C145.466 32.6492 146.664 29.7357 147.199 26.7514C147.614 26.5392 148.211 26.2386 148.985 25.8495C149.759 25.4649 150.497 25.0935 151.191 24.7398C151.885 24.3861 152.509 24.0634 153.057 23.7628C152.34 25.4339 151.735 27.0742 151.24 28.6923C150.744 30.3104 150.435 31.7605 150.316 33.0515C150.192 34.3424 150.263 35.4389 150.528 36.3408C150.979 37.8749 151.615 38.958 152.442 39.5903C153.265 40.2269 154.122 40.4126 155.002 40.1562C155.758 39.9351 156.527 39.3736 157.31 38.4673C158.092 37.5654 158.897 36.4203 159.724 35.041C160.515 33.7146 161.483 31.9462 162.624 29.7445C162.951 30.6641 163.287 31.4289 163.636 32.0125C164.149 32.8658 165.047 33.6483 166.329 34.369C168.5 35.5538 170.573 35.8589 172.545 35.2797C174.079 34.8287 175.706 33.6174 177.426 31.6411C179.146 29.6649 180.967 26.9725 182.881 23.5594L182.262 21.4505L182.267 21.424ZM63.8524 39.7096C64.5509 36.186 65.3865 33.7146 66.3547 32.2866C66.6421 31.9506 66.8499 31.7649 66.9781 31.7296C67.3141 31.6323 67.5528 31.8224 67.6943 32.3043C67.88 32.9321 67.8977 33.9445 67.7474 35.3328C67.597 36.721 67.2964 38.3258 66.8543 40.1429C66.4078 41.96 65.8772 43.7019 65.2583 45.3642C64.6393 47.0265 63.9452 48.5518 63.1671 49.9445C62.9284 46.6419 63.1538 43.2288 63.8524 39.7052V39.7096ZM86.0728 49.1177C84.8614 51.7438 83.345 54.0295 81.5235 55.9748C81.0239 56.4435 80.6569 56.7087 80.4271 56.775C80.0292 56.8944 79.6489 56.7706 79.2908 56.4081C78.9327 56.0456 78.6586 55.5283 78.4597 54.8563C77.9159 53.0083 78.5481 50.8773 80.3563 48.4501C82.1645 46.0274 85.4273 42.7646 90.1534 38.6663C88.6459 43.0078 87.2886 46.4872 86.0772 49.1133L86.0728 49.1177ZM129.824 32.1805C130.209 30.9293 130.721 29.7843 131.362 28.7542C132.003 27.7241 132.68 26.8398 133.387 26.1059C134.095 25.372 134.638 24.952 135.014 24.8415C135.456 24.7133 135.748 24.8901 135.89 25.372C136.027 25.8318 135.921 26.6586 135.571 27.8434C135.222 29.0283 134.537 30.3634 133.515 31.8489C132.494 33.3344 131.146 34.7226 129.47 36.0136C129.315 34.7138 129.43 33.4361 129.815 32.1849L129.824 32.1805ZM170.374 29.0239C169.145 27.9495 168.234 27.2466 167.637 26.9194C167.041 26.5923 166.072 26.4817 164.733 26.5746C167.766 21.1499 169.715 17.5069 170.586 15.6589L172.501 20.0888C172.571 20.2524 172.638 20.416 172.695 20.5796C172.753 20.7432 172.815 20.9333 172.876 21.1411C173.394 22.9051 173.42 24.4082 172.952 25.6506C172.483 26.8929 171.625 28.0203 170.37 29.0239H170.374Z" fill="#552084" stroke="#552084" stroke-linecap="round" stroke-linejoin="round"/>
</g>
</g>
</svg>
