<svg fill="none" height="368" viewBox="0 0 419 368" width="419" xmlns="http://www.w3.org/2000/svg"><path d="m120.096 75.3698c-2.06-2.89-4.43-5.1301-7.12-6.7301-7.55-4.62-18.6696-4.77-33.3896-.45-12.72 3.74-26.51 11.03-41.37 21.87-1.55 5.79-2.79 11.1603-3.74 16.1003-.94 4.94-1.36 7.6-1.25 7.99.1.33.35.57.75.71s.77.16 1.1.06c1.17-.91 3.11-2.45 5.8-4.62 2.69-2.16 5.77-4.52 9.25-7.07s7.76-5.2403 12.86-8.0903c5.09-2.84 10.08-5.09 14.96-6.73l-12.15 38.9303c-6.16 3.42-10.56 6.88-13.18 10.4-2.63 3.52-3.51 6.76-2.64 9.71.39 1.34 1.41 2.51 3.05 3.53s3.7 1.64 6.18 1.84c-1.96 8.76-3.31 15.73-4.03 20.89-.73 5.16-.78 8.79-.16 10.89.43 1.48.96 2.58 1.59 3.3s1.63.88 3 .48c.66-.19 1.26-.68 1.78-1.45s.94-1.62 1.26-2.55c.32-.92.92-2.78 1.8-5.58s1.58-5.05 2.11-6.76c.37-1.2.34-2.53-.1-4.01-.18-.62-.75-1.33-1.71-2.14l2.96-13.62c5.01-.85 8.3-1.5 9.86-1.96 8.87-2.61 16.71-6.14 23.4896-10.59 6.79-4.45 12.3-9.64 16.54-15.55s6.99-12.22 8.24-18.94c1.25-6.7102.82-13.6502-1.28-20.8002-.91-3.15-2.4-6.17-4.46-9.06zm-2.35 23.1899c-.63 3.8103-2.25 7.9003-4.86 12.2703s-6.63 8.57-12.07 12.6c-5.4396 4.03-12.3096 7.27-20.6196 9.71-.95.28-2.14.58-3.57.89-1.43.32-3.06.69-4.89 1.12l2.04-8.06 10.21-5.25c1.16-.6 1.66-1.21 1.47-1.83-.21-.72-.7-.96-1.45-.74l-9.01 3.81 6.65-23.1703c1.42-4.82 1.76-8.4699 1.04-10.9499-.22-.76-.46-1.39-.71-1.89 7.31-2.15 13.37-3.5801 18.1896-4.2901 4.82-.71 8.72-.5499 11.7.4901 2.99 1.04 4.93 3.11 5.85 6.21.65 2.24.66 5.2699.03 9.0799z" style="fill:#fff;stroke:#fff;stroke-width:10;stroke-miterlimit:10;stroke-linecap:round;stroke-linejoin:round"/><path d="m412.256 47.0998c-2.36 3.54-4.47 6.48-6.34 8.82-1.87 2.33-3.78 4.32-5.75 5.96s-3.92 2.75-5.87 3.32c-1 .29-2.39.55-4.18.76 3.46-4.02 6.15-7.75 8.08-11.2 1.93-3.44 3.18-6.81 3.75-10.12.58-3.3.4-6.53-.52-9.68-.62-2.1-1.36-3.93-2.23-5.49s-2.01-3.46-3.42-5.72-2.25-3.84-2.51-4.74c-.31-1.05-.45-1.89-.43-2.52l-.83-1.23c-1.31-.24-2.46-.21-3.46.08-3.99 1.17-5.64 4.84-4.96 11.02-3.08 6.55-8.83 18.11-17.26 34.69l.01.03c-5.21 7.61-9.24 11.85-12.05 12.68-2.75.81-4.46.09-5.12-2.15-.48-1.62-.33-4.28.44-7.98s2.01-7.27 3.73-10.73c1.48-2.87 2.48-5.02 3.02-6.44.53-1.43.65-2.64.36-3.64-.46-1.57-1.19-3.07-2.17-4.49-.99-1.42-1.94-2.23-2.88-2.42-.44-.08-1.15.03-2.15.32-2.56.75-8.51 3.33-17.84 7.73.74-2.91.99-4.77.76-5.59-.27-.91-.87-1.22-1.82-.94-.62.18-1.21.54-1.78 1.07-1.51 1.17-2.98 3.21-4.39 6.11-1.42 2.9-2.45 5.88-3.1 8.92s-.73 5.42-.22 7.14c.45 1.53 1.13 2.57 2.04 3.13s2.2.88 3.88.96c-.63 2.3-1.68 5.14-3.1 8.47-2.65 4.09-4.95 7.4-6.88 9.93-1.94 2.54-3.99 4.72-6.16 6.55s-4.42 3.08-6.74 3.77c-2.23.66-4.27.4-6.1-.77-1.84-1.17-3.17-3.16-4-5.98l-.53-1.79c5.89-4.68 10.7-9.17 14.42-13.45s6.25-8.24 7.61-11.87c1.35-3.64 1.59-6.96.71-9.96-.6-2.05-1.71-3.4-3.31-4.04-1.61-.64-3.53-.64-5.76.02-2.8.82-5.75 2.54-8.85 5.16s-5.99 6.01-8.69 10.17c-3.94 6.08-6.47 11.5-7.6 16.26-.66 2.8-.86 5.64-.63 8.53-2.2 3.14-4.02 5.88-5.45 8.18-1.47 2.37-3.31 5.49-5.52 9.3602-2.22 3.86-4.31 7.56-6.29 11.1-1.98 3.53-3.02 5.39-3.12 5.58 1.39-7.2 2.91-13.74 4.55-19.64 1.64-5.9002 3.35-11.6302 5.12-17.2002 1.76-5.57 2.93-9.49 3.51-11.76.57-2.27.67-4.04.29-5.33-.66-2.24-1.49-3.84-2.49-4.79s-2.08-1.18-3.22-.69c-.6.23-1.18.84-1.74 1.83s-1.21 2.42-1.96 4.27-1.6 3.85-2.57 6-2.24 4.67-3.81 7.57c-4.06 7.41-8.05 13.53-11.97 18.36-3.92 4.8302-6.54 7.4402-7.87 7.8302-1.28.38-2.11-.08-2.49-1.37-.17-.57-.18-1.29-.02-2.17l.2-4.3302c3.77-5.77 6.61-10.61 8.54-14.52 1.92-3.91 3.24-7.05 3.95-9.44.72-2.39.94-4.03.68-4.94-.42-1.43-1.43-2.63-3.03-3.62-1.6-.98-3.04-1.28-4.33-.91-.81.24-2 1.43-3.59 3.58s-3.29 5.02-5.12 8.62-3.6 7.85-5.3 12.75c-1.16 3.61-1.88 6.47-2.15 8.6-.18 1.3902-.11 2.9202.17 4.5702-4.78 7.34-8.74 11.51-11.84 12.42-3.23.95-5.36-.34-6.4-3.87-.63-2.15-.7-4.1-.21-5.85s1.43-4.52 2.81-8.3302c1.38-3.8 1.91-6.27 1.57-7.42-.17-.57-.5-1.18-1.01-1.84-.5-.66-1.19-1.5-2.06-2.54s-1.59-1.89-2.14-2.56c1.49-1.06 2.51-1.89 3.06-2.49s.69-1.33.44-2.19c-.15-.53-.64-1.26-1.46-2.21s-1.78-1.72-2.88-2.3-2.15-.73-3.14-.44c-3.7 1.09-8.48 4.23-14.32 9.42-5.85 5.19-11.41 12.13-16.69 20.8402-1.95 3.37-3.31 6.02-4.08 7.96s-1.15 3.72-1.13 5.35c.01.73.09 1.53.22 2.38-2.74 4.62-4.63 7.77-5.64 9.44-1.11 1.83-2.22 3.41-3.32 4.74-1.1 1.34-2.25 2.18-3.43 2.53-2.33.68-4.42.26-6.29-1.26s-3.25-3.81-4.14-6.86c-.39-1.33-.72-3.31-.97-5.93 6.63-12.88 11.21-24.9402 13.73-36.1702 2.53-11.23 2.82-20.17.87-26.8-.63-2.15-1.24-3.61-1.83-4.4s-1.39-1.03-2.38-.74c-.81.24-1.8.99-2.97 2.27-2.91 3.08-5.66 7.79-8.26 14.12-2.6 6.34-4.8 13.51-6.59 21.52-1.8 8.0202-2.85 15.7102-3.16 23.0802s.25 13.49 1.68 18.36c1.77 6.01 4.15 10.58 7.16 13.71s6.2 4.2 9.57 3.21c5.96-1.75 11.84-10.09 17.63-24.98.89 2.17 2.09 4.18 3.6 6.04 2.06 2.53 4.14 4.47 6.23 5.82 2.1 1.35 3.67 1.88 4.71 1.57 2.18-.64 4.48-3.09 6.89-7.35s5.94-11.27 10.6-21.03c-.6 7.95-.35 13.81.76 17.58.7 2.39 1.62 4.07 2.76 5.06s2.64 1.21 4.49.66c4.98-1.46 11.29-10.07 18.95-25.79 1.13 2.61 2.99 5.37 5.6 8.28 3.29 3.67 5.87 5.23 7.72 4.69 2.04-.6 5.3-4.43 9.77-11.5l9.5-14.5302c-6.29 22.6302-10.01 38.3102-11.16 47.0402-.21 1.2-.12 2.5.29 3.88.45 1.53 1.35 3.17 2.72 4.91 1.36 1.75 2.55 2.48 3.54 2.19.43-.13.87-.68 1.32-1.67.46-.99.98-2.36 1.58-4.11.59-1.76 1.28-3.65 2.08-5.7.29-.76 1.3-3.41 3.03-7.97 1.73-4.55 4.28-10.69 7.66-18.42 3.22-7.38 6.92-15.2702 11.05-23.6202.04.15.07.3.12.45 1.68 5.72 4.24 9.8702 7.67 12.4402s7.26 3.23 11.49 1.99c4.84-1.42 9.1-4.55 12.78-9.3902 3.52-4.62 6.93-10.73 10.25-18.3l.09.3c4.18-6.46 6.88-13.08 8.09-19.86.94-.48 2.29-1.17 4.04-2.04 1.75-.88 3.41-1.71 4.98-2.51s2.98-1.53 4.22-2.21c-1.62 3.79-2.99 7.52-4.1 11.19s-1.81 6.97-2.08 9.9-.11 5.42.49 7.47c1.02 3.48 2.47 5.95 4.34 7.39 1.87 1.45 3.8 1.88 5.79 1.29 1.71-.5 3.45-1.78 5.22-3.83s3.59-4.64 5.45-7.78c1.79-3.01 3.97-7.02 6.54-12.03.74 2.09 1.51 3.83 2.3 5.15 1.16 1.94 3.2 3.73 6.1 5.36 4.92 2.7 9.61 3.4 14.07 2.08 3.46-1.02 7.14-3.77 11.03-8.25s8-10.6 12.32-18.35zm-267.84 41.18c1.57-8 3.45-13.62 5.64-16.85.65-.76 1.12-1.18 1.41-1.27.76-.22 1.3.21 1.62 1.31.42 1.43.46 3.72.13 6.88-.34 3.16-1.01 6.8-2.01 10.93s-2.2 8.08-3.59 11.8602c-1.39 3.78-2.96 7.24-4.72 10.4-.55-7.51-.05-15.2602 1.52-23.2602zm50.3 21.4402c-2.74 5.96-6.16 11.15-10.27 15.57-1.13 1.06-1.96 1.66-2.48 1.82-.9.27-1.76-.02-2.57-.84s-1.44-2-1.89-3.53c-1.23-4.2.19-9.05 4.27-14.55s11.46-12.9002 22.13-22.2002c-3.39 9.87-6.45 17.7702-9.19 23.7302zm98.93-38.3502c.87-2.84 2.02-5.44 3.48-7.78 1.45-2.34 2.98-4.35 4.58-6.01s2.83-2.62 3.68-2.87c1-.29 1.66.11 1.98 1.21.31 1.05.07 2.92-.71 5.61s-2.33 5.72-4.64 9.1c-2.31 3.37-5.35 6.52-9.13 9.45-.36-2.96-.1-5.86.76-8.71zm91.73-7.04c-2.78-2.45-4.85-4.04-6.2-4.79-1.35-.74-3.54-1-6.57-.79 6.85-12.32 11.25-20.58 13.21-24.79l4.35 10.07c.16.37.31.74.44 1.12.14.37.27.8.41 1.28 1.18 4.01 1.24 7.42.19 10.24s-2.99 5.38-5.83 7.66z" style="fill:#fff;stroke:#fff;stroke-width:10;stroke-miterlimit:10;stroke-linecap:round;stroke-linejoin:round"/><path d="m196.996 316.87c-2.94 2.91-5.3 5.45-7.86 7.76-6.62 5.96-13.27 11.89-20.04 17.67-4.2 3.59-10.19 1.75-11.22-3.27-.51-2.48.57-4.37 2.48-5.9 10.96-8.76 21.13-18.35 30.67-28.66 1.86-2.01 2.07-3.61 1.19-6.09-5.45-15.33-13.7-29.07-23.44-42-.87-1.16-1.7-.94-2.74-.65-12.81 3.65-25.88 5.39-39.19 4.88-31.4496-1.2-59.3396-11.79-82.8596-32.77-20.65-18.42-34.44997-41.24-40.56997-68.33-7.41-32.82-2.720006-64.0803 13.61997-93.4503 10.25-18.43 24.52-33.14 42.22-44.74 24.24-15.87999 50.7596-22.84999 79.4996-21.039993 27.2 1.710003 51.68 11.099993 73.02 28.159993 18.46 14.76 31.91 33.27 40.43 55.33 6.53 16.9103 9.26 34.4403 8.48 52.5303-.02.56-.03 1.13-.02 1.7 0 .13.09.26.24.65 2.74-.64 5.52-1.28 8.29-1.95 15.32-3.71 30.8-6.49 46.59-6.88 11.54-.29 23.03.33 34.03 4.43 5.6 2.09 10.57 5.11 13.86 10.31 4.34 6.88 3.71 14.13 1.33 21.41-2.11 6.45-5.59 12.16-10.04 17.5.36.56.72 1.14 1.09 1.71 10.22 15.5 14.7 32.49 13.48 51.02-.81 12.27-4.03 23.89-9.33 34.91-1.39 2.9-1.94 5.82-2.18 8.93-1.06 13.54-6.02 25.46-15.11 35.56-1.29 1.43-3.19 2.77-5.02 3.18-3.83.86-6.14-.89-7.81-5.06-4.28 4.02-8.58 8-12.77 12.08-.47.46-.56 1.57-.45 2.32 1.23 7.86 1.66 15.75.77 23.66-.4 3.56-.99 7.13-1.85 10.61-.92 3.69-4.67 5.56-8.32 4.51-3.63-1.05-5.25-4.08-4.3-7.92 1.67-6.71 1.98-13.53 1.69-20.41-.02-.55-.18-1.09-.32-1.9-3.59 2.7-6.91 5.41-10.44 7.8-10.58 7.17-21.25 14.22-31.89 21.3-2.73 1.82-5.55 2.03-8.31.11-2.39-1.66-2.8-4.05-2.32-6.77 1.66-9.38.91-18.71-.74-28-.04-.25-.24-.47-.43-.82-3.93 3.25-7.65 6.62-11.67 9.59-11.76 8.69-23.64 17.22-35.48 25.81-2.01 1.45-4.19 1.94-6.61 1.13-3.42-1.14-5.28-4.65-3.87-7.95 4.18-9.82 5.48-20.1 5.16-30.65-.13-3.57-.59-7.13-.94-11.35zm-45.72-128c6.25-4.32 12.66-8.8 19.13-13.2 1.32-.9 1.24-1.64.52-2.92-13.44-23.99-29.33-46.17-48.51-65.93-11.4-11.7503-23.7696-22.3903-37.2296-31.7303-11.64-8.08-23.94-15.03-36.9-20.77-1.13-.5-2.16-1.39-3.49.14-11.24 12.88-19.3 27.48-24.06 43.89-.25.85-.16 2.0003.22 2.8003 4.27 8.95 9.19 17.52 15.24 25.41 5.73 7.46 12.37 13.92 21.27 17.34 6.18 2.38 12.55 4.38 18.99 5.92 13.42 3.21 26.7096 6.75 39.3596 12.35 9.82 4.34 19.09 9.59 26.81 17.19 2.9 2.85 5.5 6.02 8.65 9.51zm33.08-24.96c4.92-5.55 9.67-10.86 14.34-16.24.3-.35.21-1.33-.05-1.82-7.65-13.86-11.89-28.77-13.81-44.4-2.26-18.3403-7.66-35.7003-16.27-52.0603-6.03-11.46-13.43-21.93-22.6-31.1-.73-.73-1.86-1.39-2.86-1.5-28.01-2.98-53.7296 3.41-77.1296 19.08-2.49 1.67-4.84 3.56-7.41 5.46 55.8696 26.6 95.3596 69.4703 125.7896 122.5803zm-48.51 32.43c.08-.31.15-.63.23-.94-2.59-2.47-5.04-5.1-7.78-7.39-8.09-6.75-17.46-11.33-27.38-14.51-11.0196-3.53-22.2596-6.36-33.4296-9.39-9.39-2.54-18.55-5.58-26.67-11.11-9.52-6.48-16.7-15.16-23.01-24.64-.4-.6-.81-1.2-1.5-2.21-.44 9.03.2 17.39 1.81 25.66 4.02 20.65 13.02 38.87 27.01 54.59.54.61 1.49 1.1 2.29 1.18 23.4 2.34 46.59 1.4 69.3496-5.01 6.43-1.81 12.72-4.14 19.08-6.23zm92.67 20.06c4.11-1.02 7.66-1.82 11.16-2.78 26.73-7.33 52.26-17.47 75.55-32.73 8.37-5.48 16.2-11.66 21.9-20.07 4.58-6.75 2.91-10.84-5.04-12.54-9.11-1.95-18.3-1.36-27.43-.33-15.36 1.74-30.38 5.27-45.2 9.64-1.23.36-1.84.95-2.13 2.23-4.19 18.16-11.88 34.68-23.21 49.49-1.69 2.23-3.47 4.4-5.6 7.09zm-56.71-192.6003c.15.48.16.63.23.75.27.41.56.82.84 1.22 14.57 21.04 23.47 44.31 27.22 69.56 1.34 9.0103 2.51 18.0403 5.48 26.7003 1.2 3.49 2.61 6.91 4.04 10.64.54-.59.75-.77.89-.99 9.33-14.4 17.04-29.58 22.78-45.7803.9-2.54.64-4.47-.53-6.74-9.13-17.77-21.79-32.42-38.36-43.62-6.98-4.71-14.39-8.6-22.59-11.74zm148.95 195.8303c-.26 1.09-.42 1.68-.54 2.27-.66 3.39-1.15 6.81-1.98 10.15-3.86 15.63-10.73 29.95-19.42 43.43-1.05 1.62-1.18 2.73-.16 4.51 3.06 5.31 6.01 10.7 8.59 16.26 2.33 5.01 4.11 10.28 6.18 15.56.24-.16.56-.3.79-.53 11.84-11.35 22.41-23.72 30.35-38.17.44-.8.65-1.89.57-2.8-.19-2.17-.54-4.34-.98-6.48-2.69-13.19-9-24.69-16.76-35.49-2.05-2.85-4.25-5.58-6.64-8.71zm-63.19 86.17c8.28-8.44 15.86-17.19 22.77-26.53 1.05-1.42 1.15-2.32.08-3.78-8.95-12.29-19.29-23.3-30.57-33.45-1.58-1.42-5.68-.25-6.52 1.73-2.84 6.75-5.67 13.51-8.65 20.2-.57 1.28-.48 2.02.29 3.19 5.39 8.19 10.83 16.36 15.88 24.76 2.62 4.32 4.45 9.1 6.72 13.88zm-30.63-27.64c-.44.62-.68.96-.92 1.3-5.58 7.81-11.09 15.66-16.79 23.38-1.08 1.47-1.38 2.63-.96 4.35 2.56 10.71 3.52 21.56 2.48 32.55-.17 1.84-.34 3.68-.52 5.53.34 0 .43.03.47 0 12.38-8.7 24.17-18.14 35.29-28.41.4-.37.59-1.4.39-1.95-1.21-3.3-2.46-6.6-3.87-9.82-4.15-9.47-9.42-18.29-15.57-26.93zm-160.3296-52.98c.58.39 1.12.83 1.73 1.15 6.38 3.32 12.61 7.02 19.21 9.83 13.6096 5.79 27.9496 8.41 42.7496 8.42.83 0 1.86-.29 2.46-.82 6.13-5.4 10.34-11.97 11.48-20.18.63-4.49.39-8.97-1.17-13.44-24.49 10.49-49.9896 14.81-76.4596 15.04zm199.2496 123.35c.61-.31.94-.43 1.21-.63 11.23-8.2 22.43-16.43 33.69-24.59 1.3-.94 1.53-1.85 1.14-3.34-2.72-10.35-6.83-20.13-11.99-29.48-.18-.33-.49-.6-.81-.99-1.16 1.46-2.13 2.86-3.26 4.11-7.51 8.26-15.06 16.47-22.55 24.74-.53.59-1.14 1.59-.99 2.23 2.22 9.07 3.68 18.23 3.56 27.95zm-110.56-106.61c13.62-2.97 26.36-8.47 38.18-16.17 1.1-.72.8-1.48.45-2.35-3.38-8.37-6.71-16.76-10.17-25.09-1.31-3.16-2.92-6.19-4.29-9.04-6.99 4.45-13.76 8.8-20.59 13.04-1.23.77-.86 1.52-.58 2.49 2.19 7.56 3.18 15.26 1.38 23-1.12 4.75-2.88 9.36-4.38 14.12zm52.5-27.4c10.64-9.8 18.9-20.94 25.23-33.76-9.32-5.26-17.26-11.96-24.12-20.04-.32.27-.55.42-.73.62-5.12 5.36-10.2 10.76-15.37 16.07-.88.91-.58 1.5-.18 2.38 3.58 7.82 7.18 15.64 10.67 23.51 1.59 3.59 2.93 7.3 4.5 11.22zm56.32 22.67c8.25 9.12 16.83 18.6 25.44 28.12 8.46-14.21 15.04-29.28 17.47-45.59-14.45 5.89-28.84 11.75-42.91 17.47zm-21.74-130.28c-.4.58-.59.78-.69 1.02-6.09 13.56-13.33 26.47-22.02 38.54-.67.93-.61 1.6.19 2.38 4.34 4.23 8.57 8.57 13.01 12.69 1.76 1.63 3.98 2.78 6.22 4.3 6.19-19.48 7.23-38.83 3.29-58.93zm111.47 142.82c5.15-20.01 2.82-38.84-7.87-56.38-6.37 4.89-12.49 9.6-18.71 14.38 11.06 12.62 20.56 26.2 26.58 42zm-173.4.69c9.33 12.42 16.88 25.23 22.44 39.26.36-.26.57-.34.67-.5 4.68-7.04 9.34-14.1 14.05-21.13.69-1.03.25-1.64-.43-2.36-4.78-5.09-9.52-10.24-14.36-15.27-.63-.65-1.81-1.07-2.75-1.08-4.87-.09-9.74-.09-14.61.05-1.54.04-3.06.61-5.01 1.03zm48.13-4.68c-3.72.64-6.89 1.19-10.39 1.8 2.27 2.47 4.25 4.63 6.47 7.05 1.3-2.95 2.51-5.67 3.92-8.85z" fill="#fff"/><path d="m151.276 188.87c-3.15-3.49-5.75-6.66-8.65-9.52-7.71-7.6-16.98-12.85-26.81-17.19-12.66-5.59-25.9396-9.14-39.3596-12.35-6.44-1.54-12.81-3.54-18.99-5.92-8.9-3.43-15.54-9.89-21.27-17.34-6.05-7.88-10.98-16.45-15.24-25.41-.38-.8-.46-1.9503-.22-2.8003 4.77-16.41 12.82-31.01 24.06-43.89 1.33-1.53 2.36-.64 3.49-.14 12.96 5.74 25.26 12.68 36.9 20.77 13.46 9.34 25.8296 19.98 37.2296 31.7303 19.17 19.76 35.07 41.94 48.51 65.93.72 1.29.8 2.02-.52 2.92-6.47 4.41-12.89 8.89-19.13 13.21z" fill="#fab216"/><path d="m184.356 163.91c-30.42-53.11-69.91-95.9903-125.7896-122.5703 2.57-1.9 4.91-3.79 7.41-5.46 23.4-15.68 49.1196-22.06 77.1296-19.08 1 .11 2.13.76 2.86 1.5 9.16 9.17 16.57 19.65 22.6 31.1 8.61 16.35 14.01 33.72 16.27 52.0603 1.93 15.63 6.16 30.54 13.81 44.4.27.49.35 1.48.05 1.82-4.67 5.37-9.42 10.68-14.34 16.23z" fill="#fdba21"/><path d="m135.846 196.34c-6.36 2.09-12.65 4.42-19.09 6.23-22.7596 6.4-45.9496 7.35-69.3496 5.01-.8-.08-1.75-.57-2.29-1.18-13.99-15.72-22.99-33.94-27.01-54.59-1.61-8.27-2.25-16.63-1.81-25.66.69 1.01 1.1 1.61 1.5 2.21 6.31 9.48 13.49 18.16 23.01 24.64 8.12 5.53 17.29 8.57 26.67 11.11 11.17 3.03 22.42 5.86 33.4296 9.39 9.92 3.18 19.29 7.76 27.38 14.51 2.74 2.29 5.2 4.92 7.78 7.39-.07.31-.14.62-.22.94z" fill="#fab216"/><path d="m228.516 216.4c2.13-2.68 3.91-4.86 5.61-7.09 11.33-14.81 19.02-31.33 23.21-49.49.3-1.28.91-1.87 2.13-2.23 14.82-4.37 29.83-7.9 45.2-9.64 9.12-1.03 18.31-1.63 27.43.33 7.95 1.71 9.62 5.79 5.04 12.54-5.7 8.41-13.53 14.59-21.9 20.07-23.29 15.25-48.82 25.39-75.55 32.73-3.51.96-7.06 1.76-11.17 2.78z" fill="#552084"/><path d="m171.806 23.7997c8.19 3.13 15.61 7.03 22.59 11.74 16.58 11.2 29.23 25.85 38.36 43.62 1.17 2.27 1.43 4.21.53 6.74-5.74 16.1903-13.45 31.3803-22.78 45.7803-.14.22-.36.4-.89.99-1.42-3.73-2.84-7.15-4.04-10.64-2.97-8.66-4.14-17.69-5.48-26.7003-3.75-25.25-12.65-48.52-27.22-69.56-.28-.41-.57-.81-.84-1.22-.07-.11-.08-.26-.23-.75z" fill="#fab216"/><path d="m320.756 219.63c2.39 3.13 4.6 5.86 6.64 8.71 7.76 10.8 14.07 22.3 16.76 35.49.44 2.14.78 4.31.98 6.48.08.92-.12 2-.57 2.8-7.94 14.45-18.51 26.82-30.35 38.17-.24.23-.55.37-.79.53-2.07-5.27-3.85-10.54-6.18-15.56-2.58-5.55-5.54-10.95-8.59-16.26-1.02-1.78-.89-2.89.16-4.51 8.69-13.48 15.56-27.79 19.42-43.43.83-3.34 1.32-6.77 1.98-10.15.12-.59.28-1.18.54-2.27z" fill="#552084"/><path d="m257.566 305.8c-2.28-4.78-4.11-9.56-6.7-13.88-5.05-8.4-10.5-16.57-15.88-24.76-.77-1.16-.86-1.9-.29-3.19 2.97-6.69 5.81-13.45 8.65-20.2.84-1.99 4.94-3.15 6.52-1.73 11.28 10.15 21.62 21.16 30.57 33.45 1.07 1.46.97 2.36-.08 3.78-6.93 9.34-14.51 18.09-22.79 26.53z" fill="#552084"/><path d="m226.936 278.16c6.15 8.64 11.42 17.46 15.57 26.92 1.41 3.22 2.67 6.51 3.87 9.82.2.55.02 1.58-.39 1.95-11.12 10.27-22.91 19.71-35.29 28.41-.05.03-.13 0-.47 0 .17-1.86.34-3.7.52-5.53 1.04-10.99.08-21.84-2.48-32.55-.41-1.72-.12-2.88.96-4.35 5.7-7.72 11.21-15.57 16.79-23.38.24-.33.48-.67.92-1.29z" fill="#552084"/><path d="m66.6064 225.18c26.47-.23 51.9696-4.55 76.4596-15.04 1.57 4.47 1.8 8.96 1.17 13.44-1.15 8.21-5.35 14.78-11.48 20.18-.6.53-1.63.82-2.46.82-14.8-.01-29.14-2.62-42.7496-8.42-6.6-2.81-12.82-6.52-19.21-9.83-.61-.32-1.16-.76-1.73-1.15z" fill="#fab216"/><path d="m265.856 348.53c.12-9.72-1.35-18.88-3.55-27.95-.15-.63.46-1.64.99-2.23 7.49-8.27 15.04-16.48 22.55-24.74 1.13-1.25 2.1-2.64 3.26-4.11.32.39.63.66.81.99 5.16 9.35 9.27 19.13 11.99 29.48.39 1.48.16 2.39-1.14 3.34-11.26 8.16-22.47 16.39-33.69 24.59-.28.2-.6.32-1.22.63z" fill="#552084"/><path d="m155.296 241.92c1.5-4.75 3.26-9.37 4.38-14.13 1.81-7.74.81-15.43-1.38-23-.28-.96-.66-1.72.58-2.49 6.83-4.25 13.6-8.6 20.59-13.04 1.36 2.86 2.98 5.89 4.29 9.04 3.46 8.33 6.79 16.72 10.17 25.09.35.86.66 1.63-.45 2.35-11.82 7.71-24.56 13.21-38.18 16.18z" fill="#fab216"/><path d="m207.796 214.52c-1.56-3.91-2.91-7.62-4.5-11.22-3.48-7.87-7.08-15.69-10.67-23.51-.4-.88-.71-1.47.18-2.38 5.17-5.31 10.25-10.71 15.37-16.07.18-.19.41-.35.73-.62 6.86 8.08 14.8 14.78 24.12 20.04-6.33 12.82-14.6 23.95-25.23 33.76z" fill="#fab216"/><path d="m264.116 237.19c14.07-5.73 28.46-11.58 42.91-17.46-2.43 16.3-9 31.38-17.47 45.59-8.61-9.52-17.19-19.01-25.44-28.13z" fill="#552084"/><path d="m242.376 106.91c3.94 20.1 2.9 39.45-3.31 58.93-2.24-1.52-4.45-2.67-6.22-4.3-4.44-4.12-8.68-8.46-13.01-12.69-.8-.78-.86-1.45-.19-2.38 8.7-12.07 15.94-24.98 22.02-38.54.12-.24.31-.43.71-1.02z" fill="#fab216"/><path d="m353.846 249.73c-6.02-15.81-15.52-29.38-26.58-42.01 6.22-4.78 12.34-9.48 18.71-14.38 10.7 17.55 13.02 36.38 7.87 56.39z" fill="#552084"/><path d="m180.446 250.42c1.95-.42 3.48-.99 5.02-1.04 4.87-.14 9.74-.14 14.61-.05.94.02 2.12.43 2.75 1.08 4.85 5.03 9.58 10.18 14.36 15.27.67.72 1.12 1.33.43 2.36-4.71 7.03-9.37 14.09-14.05 21.13-.1.15-.31.24-.67.5-5.57-14.02-13.12-26.83-22.45-39.25z" fill="#552084"/><path d="m228.576 245.74c-1.41 3.18-2.61 5.91-3.92 8.85-2.22-2.41-4.2-4.58-6.47-7.05 3.5-.61 6.67-1.16 10.39-1.8z" fill="#552084"/><path d="m152.116 287.37-1.71 2.73c-1.95-1.24-3.89-1.61-5.81-1.12-1.62.41-2.85 1.31-3.68 2.71-.83 1.39-1.04 2.9-.63 4.53.29 1.13.79 2.08 1.5 2.83.72.76 1.59 1.27 2.61 1.54 1.03.27 2.09.27 3.19-.01.94-.24 1.75-.63 2.44-1.18s1.38-1.4 2.08-2.56l2.77 1.73c-.94 1.54-1.91 2.69-2.91 3.45s-2.21 1.31-3.64 1.68c-2.64.67-5.01.38-7.12-.86-2.11-1.25-3.49-3.18-4.16-5.8-.43-1.69-.43-3.3 0-4.81s1.26-2.85 2.48-4.01c1.23-1.16 2.66-1.95 4.31-2.37 1.4-.36 2.82-.4 4.27-.14 1.47.25 2.8.8 4.01 1.66z" fill="#fff"/><path d="m159.366 282.35 3.28-.83 10.84 15.32-3.36.85-2.22-3.16-6.93 1.76-.49 3.85-3.36.85zm2.81 4.08-.8 6.41 4.54-1.15z" fill="#fff"/><g fill="#552084"><path d="m120.116 75.9797c-2.06-2.88-4.43-5.11-7.11-6.69-7.54-4.59-18.6596-4.73-33.3796-.41-12.72 3.74-26.52 11.01-41.39 21.83-1.55 5.77-2.81 11.1103-3.76 16.0303s-1.37 7.57-1.26 7.95c.1.33.35.57.75.71s.77.16 1.1.06c1.18-.91 3.11-2.45 5.8-4.6 2.69-2.16 5.78-4.51 9.26-7.05s7.77-5.2303 12.87-8.0703 10.08-5.08 14.97-6.72l-12.2 38.7803c-6.17 3.41-10.56 6.87-13.2 10.37-2.63 3.51-3.51 6.73-2.65 9.67.39 1.33 1.41 2.5 3.04 3.51 1.64 1.01 3.7 1.62 6.18 1.82-1.97 8.73-3.33 15.66-4.06 20.8s-.79 8.75-.18 10.84c.43 1.47.96 2.57 1.58 3.28.62.72 1.62.88 3 .47.66-.2 1.26-.68 1.78-1.45s.94-1.62 1.26-2.54.93-2.77 1.81-5.56 1.59-5.03 2.12-6.73c.37-1.19.34-2.52-.09-3.99-.18-.62-.75-1.33-1.71-2.13l2.98-13.56c5.01-.85 8.3-1.51 9.86-1.97 8.88-2.61 16.71-6.13 23.4996-10.58 6.79-4.44 12.31-9.61 16.56-15.5s7.01-12.18 8.26-18.86c1.26-6.6803.84-13.5903-1.25-20.7103-.89-3.12-2.38-6.12-4.44-9zm-2.38 23.09c-.64 3.8003-2.26 7.8703-4.88 12.2203s-6.64 8.54-12.09 12.56c-5.4396 4.02-12.3196 7.25-20.6296 9.69-.95.28-2.14.58-3.57.89-1.43.32-3.06.69-4.89 1.13l2.05-8.03 10.22-5.24c1.16-.6 1.66-1.21 1.47-1.83-.21-.71-.69-.96-1.45-.73l-9.01 3.81 6.68-23.08c1.43-4.8003 1.78-8.4403 1.05-10.9103-.22-.76-.46-1.39-.71-1.88 7.31-2.15 13.37-3.58 18.1896-4.3 4.82-.72 8.72-.56 11.7.47s4.93 3.09 5.84 6.18c.66 2.24.67 5.26.03 9.05z" stroke="#552084" stroke-linecap="round" stroke-linejoin="round" stroke-miterlimit="10"/><path d="m412.256 47.4397c-2.37 3.53-4.48 6.46-6.35 8.79s-3.79 4.31-5.76 5.94-3.93 2.74-5.87 3.31c-1 .29-2.39.55-4.19.77 3.46-4.01 6.16-7.73 8.09-11.16s3.19-6.79 3.77-10.08.41-6.5-.51-9.63c-.61-2.09-1.35-3.91-2.22-5.46s-2.01-3.44-3.41-5.69c-1.41-2.24-2.24-3.82-2.51-4.72-.31-1.04-.45-1.88-.43-2.5l-.83-1.23c-1.31-.23-2.46-.21-3.45.09-3.99 1.17-5.65 4.83-4.98 10.97-3.08 6.53-8.85 18.04-17.31 34.55l.01.03c-5.22 7.58-9.25 11.81-12.07 12.64-2.75.81-4.46.1-5.11-2.13-.47-1.61-.32-4.26.45-7.94s2.02-7.24 3.74-10.69c1.48-2.86 2.49-5 3.03-6.42s.66-2.63.37-3.63c-.46-1.57-1.18-3.06-2.16-4.47s-1.94-2.21-2.87-2.4c-.44-.08-1.15.03-2.15.32-2.56.75-8.51 3.33-17.84 7.72.75-2.9 1-4.75.76-5.56-.26-.9-.87-1.21-1.82-.93-.62.18-1.21.54-1.78 1.06-1.51 1.17-2.98 3.2-4.4 6.09s-2.46 5.85-3.11 8.88c-.66 3.03-.74 5.4-.23 7.11.45 1.52 1.12 2.56 2.04 3.11.91.56 2.2.88 3.87.95-.63 2.29-1.69 5.12-3.11 8.44-2.66 4.07-4.96 7.37-6.89 9.9-1.94 2.53-3.99 4.7-6.16 6.53s-4.42 3.08-6.75 3.76c-2.23.66-4.27.4-6.1-.76-1.84-1.16-3.17-3.14-3.99-5.94l-.52-1.78c5.9-4.67 10.71-9.14 14.43-13.41 3.72-4.26 6.26-8.21 7.62-11.83s1.6-6.93.72-9.92c-.6-2.04-1.7-3.38-3.31-4.02s-3.52-.63-5.75.03c-2.8.82-5.75 2.54-8.85 5.15s-6 5.99-8.7 10.14c-3.94 6.06-6.48 11.46-7.62 16.2-.67 2.79-.87 5.62-.64 8.49-2.2 3.13-4.03 5.86-5.45 8.15-1.47 2.36-3.32 5.47-5.54 9.3203-2.22 3.85-4.32 7.53-6.3 11.06-1.98 3.52-3.02 5.37-3.12 5.56 1.4-7.17 2.93-13.69 4.58-19.56 1.65-5.8703 3.37-11.5803 5.14-17.1303s2.95-9.45 3.52-11.71.67-4.03.3-5.31c-.66-2.23-1.48-3.82-2.48-4.76-1-.95-2.07-1.17-3.22-.68-.6.23-1.18.84-1.74 1.83s-1.21 2.41-1.96 4.25-1.61 3.84-2.57 5.98c-.97 2.14-2.24 4.66-3.82 7.54-4.07 7.38-8.07 13.48-11.99 18.3-3.92 4.8103-6.55 7.4103-7.88 7.8003-1.28.38-2.11-.08-2.49-1.36-.17-.57-.17-1.29-.02-2.16l.2-4.3103c3.78-5.75 6.63-10.57 8.55-14.46s3.24-7.03 3.97-9.4c.72-2.38.95-4.02.68-4.92-.42-1.42-1.43-2.62-3.03-3.59s-3.04-1.27-4.32-.9c-.81.24-2 1.43-3.59 3.57s-3.3 5.01-5.13 8.59c-1.84 3.58-3.61 7.82-5.32 12.7-1.16 3.59-1.89 6.44-2.16 8.56-.18 1.3903-.11 2.9103.16 4.5503-4.79 7.32-8.75 11.47-11.86 12.38-3.23.95-5.36-.33-6.39-3.85-.63-2.14-.69-4.08-.2-5.82s1.43-4.51 2.82-8.2903c1.39-3.78 1.92-6.25 1.58-7.39-.17-.57-.5-1.18-1-1.83s-1.19-1.5-2.06-2.53-1.58-1.88-2.14-2.54c1.49-1.06 2.51-1.89 3.06-2.48.55-.6.69-1.33.44-2.18-.15-.52-.64-1.25-1.46-2.2s-1.78-1.71-2.88-2.29-2.15-.72-3.14-.43c-3.7 1.09-8.48 4.22-14.33 9.39s-11.43 12.1-16.72 20.7603c-1.95 3.36-3.32 6-4.09 7.93s-1.16 3.7-1.14 5.32c.01.72.09 1.52.22 2.37-2.75 4.6-4.64 7.74-5.66 9.4-1.12 1.82-2.22 3.4-3.33 4.73s-2.25 2.17-3.44 2.52c-2.33.68-4.42.27-6.28-1.25-1.86-1.51-3.24-3.79-4.13-6.83-.39-1.33-.71-3.3-.96-5.91 6.65-12.83 11.24-24.8403 13.78-36.0303s2.84-20.08.9-26.68c-.63-2.14-1.24-3.59-1.83-4.38-.59-.78-1.38-1.02-2.38-.73-.81.24-1.8.99-2.97 2.27-2.91 3.07-5.67 7.76-8.28 14.07s-4.81 13.45-6.62 21.44c-1.81 7.9803-2.87 15.6403-3.19 22.9803s.23 13.43 1.65 18.27c1.76 5.98 4.14 10.53 7.14 13.64s6.19 4.18 9.56 3.19c5.96-1.75 11.85-10.06 17.66-24.89.89 2.15 2.08 4.16 3.59 6.01 2.05 2.52 4.13 4.45 6.23 5.79s3.67 1.86 4.71 1.56c2.18-.64 4.48-3.08 6.9-7.32 2.41-4.24 5.96-11.23 10.63-20.95-.61 7.91-.37 13.75.73 17.5.7 2.38 1.61 4.05 2.75 5.03s2.63 1.2 4.48.66c4.97-1.46 11.3-10.04 18.98-25.7 1.13 2.6 2.98 5.34 5.59 8.23 3.29 3.65 5.86 5.2 7.71 4.66 2.04-.6 5.3-4.42 9.78-11.46l9.52-14.4703c-6.32 22.5303-10.06 38.1503-11.22 46.8403-.22 1.2-.12 2.48.28 3.86.45 1.52 1.35 3.15 2.71 4.89s2.54 2.46 3.54 2.17c.43-.13.87-.68 1.33-1.67.46-.98.98-2.35 1.58-4.1.59-1.75 1.29-3.64 2.08-5.68.29-.76 1.31-3.4 3.04-7.93 1.74-4.53 4.3-10.65 7.68-18.34 3.23-7.35 6.94-15.21 11.08-23.5303.04.15.07.3.12.44 1.67 5.7 4.22 9.8203 7.66 12.3703 3.43 2.55 7.26 3.21 11.48 1.96 4.84-1.42 9.11-4.54 12.8-9.3703 3.52-4.61 6.95-10.69 10.27-18.23l.09.3c4.19-6.44 6.9-13.03 8.11-19.78.94-.48 2.29-1.16 4.04-2.04 1.75-.87 3.42-1.71 4.99-2.51s2.98-1.53 4.22-2.21c-1.62 3.78-2.99 7.49-4.11 11.15s-1.82 6.94-2.09 9.86c-.28 2.92-.12 5.4.48 7.44 1.02 3.47 2.46 5.92 4.33 7.35 1.86 1.44 3.8 1.86 5.79 1.28 1.71-.5 3.45-1.77 5.22-3.82 1.77-2.04 3.59-4.63 5.46-7.75 1.79-3 3.98-7 6.56-11.98.74 2.08 1.5 3.81 2.29 5.13 1.16 1.93 3.19 3.7 6.09 5.33 4.91 2.68 9.6 3.37 14.06 2.06 3.47-1.02 7.15-3.76 11.04-8.23s8.01-10.56 12.34-18.28zm-267.84 41.36c1.58-7.97 3.47-13.56 5.66-16.79.65-.76 1.12-1.18 1.41-1.26.76-.22 1.3.21 1.62 1.3.42 1.42.46 3.71.12 6.85s-1.02 6.77-2.02 10.88c-1.01 4.11-2.21 8.05-3.61 11.8103-1.4 3.76-2.97 7.21-4.73 10.36-.54-7.47-.03-15.1903 1.55-23.1503zm50.26 21.2803c-2.74 5.94-6.17 11.11-10.29 15.51-1.13 1.06-1.96 1.66-2.48 1.81-.9.27-1.76-.01-2.57-.83s-1.43-1.99-1.88-3.51c-1.23-4.18.2-9 4.29-14.49 4.09-5.48 11.47-12.8603 22.16-22.1303-3.41 9.82-6.48 17.7003-9.23 23.6403zm98.97-38.3203c.87-2.83 2.03-5.42 3.48-7.75s2.98-4.33 4.58-5.99 2.83-2.61 3.68-2.86c1-.29 1.66.11 1.98 1.2.31 1.04.07 2.91-.72 5.59s-2.34 5.7-4.65 9.06-5.36 6.5-9.15 9.42c-.34-2.95-.07-5.83.8-8.67zm91.72-7.14c-2.78-2.43-4.84-4.02-6.19-4.76s-3.54-.99-6.57-.78c6.86-12.27 11.27-20.51 13.24-24.69l4.33 10.02c.16.37.31.74.44 1.11s.27.8.41 1.27c1.17 3.99 1.23 7.39.17 10.2-1.05 2.81-3 5.36-5.83 7.63z" stroke="#552084" stroke-linecap="round" stroke-linejoin="round" stroke-miterlimit="10"/><path d="m234.356 223.24c1.6-.39 2.95-.13 4.04.8 1.1.93 1.69 2.3 1.77 4.12.06 1.39-.18 2.78-.74 4.17s-1.33 2.53-2.32 3.45c-.99.91-2.15 1.53-3.47 1.86-1.66.41-3.01.17-4.05-.72-1.04-.88-1.61-2.25-1.69-4.09-.1-2.09.41-4.04 1.52-5.83 1.24-2 2.88-3.25 4.94-3.76zm.03 2.39c-.83.2-1.58.62-2.25 1.26-.67.63-1.19 1.44-1.57 2.41s-.55 1.92-.51 2.85c.05 1.1.39 1.96 1.01 2.58s1.48.79 2.58.52c1.27-.31 2.33-1.1 3.17-2.34.84-1.25 1.23-2.61 1.16-4.09-.06-1.22-.42-2.12-1.08-2.7-.66-.57-1.49-.74-2.51-.49z"/><path d="m242.406 221.5 2.02-.56c1.25-.35 2.13-.46 2.66-.36.66.13 1.16.43 1.52.88.36.46.57 1.06.62 1.81.06.92-.12 1.78-.55 2.57s-1.12 1.45-2.07 1.98l2.95 5.26-2.26.63-2.89-5.12-.18.05-.29 6-2.18.6zm1.92 4.89c1.18-.33 1.94-.69 2.28-1.06s.49-.83.45-1.38c-.02-.31-.11-.56-.27-.73s-.37-.26-.65-.27-.83.1-1.65.33z"/><path d="m255.196 217.81 1.84-.57 4.13 12.32-2.11.65-.88-2.62-4.6 1.42-1.06 3.22-2.34.72zm2.22 7.61-1.34-4.06-1.63 4.98z"/><path d="m262.746 215.41 1.89-.66 5.28 7.44-.04-9.27 2.12-.74.07 13.63-1.85.64-5.35-7.52.04 9.37-2.08.73z"/><path d="m284.416 209.87-1.58 2.02c-.63-.46-1.21-.72-1.73-.79-.53-.07-1.1.02-1.71.27-1.33.53-2.31 1.56-2.94 3.08-.5 1.22-.66 2.41-.47 3.57.19 1.15.69 1.97 1.49 2.48.81.51 1.71.56 2.7.17.74-.29 1.38-.76 1.92-1.4s.94-1.44 1.19-2.4l-3.58 1.42-.11-2.39 5.8-2.3c.27 2.17-.05 4.1-.95 5.79-.9 1.7-2.2 2.88-3.92 3.56-1.86.74-3.44.59-4.75-.43-1.05-.82-1.7-2.04-1.97-3.65-.32-1.96.03-3.9 1.05-5.83s2.4-3.23 4.14-3.92c.64-.26 1.29-.4 1.94-.43s1.25.04 1.81.23c.56.16 1.12.49 1.67.95z"/><path d="m287.136 206.07 6.12-2.74.2 2.37-3.97 1.78.21 2.77 3.99-1.79.2 2.35-4.01 1.8.27 3.55 4.03-1.81.19 2.34-6.19 2.78z"/><path d="m309.556 196.76-1.1 2.37c-.44-.24-.93-.35-1.47-.32s-1.08.19-1.64.49c-.78.41-1.47 1.03-2.06 1.86-.59.82-.99 1.7-1.19 2.64s-.19 1.82.04 2.64c.3 1.12.91 1.86 1.81 2.22.9.37 1.9.26 2.99-.32 1.17-.62 2.08-1.54 2.73-2.74l1.73 1.14c-1 1.67-2.34 2.95-4.01 3.84-1.17.63-2.24.91-3.2.86s-1.81-.42-2.57-1.11c-.76-.68-1.29-1.58-1.59-2.69-.33-1.19-.34-2.49-.05-3.89.29-1.41.85-2.69 1.69-3.86s1.85-2.06 3.04-2.7c1.66-.91 3.28-1.05 4.85-.43z"/><path d="m316.276 190.4c1.5-.94 2.92-1.18 4.26-.74s2.29 1.47 2.86 3.08c.43 1.24.55 2.58.36 4.04s-.66 2.77-1.41 3.96c-.75 1.18-1.75 2.17-2.99 2.94-1.55.97-2.96 1.25-4.24.83s-2.2-1.45-2.77-3.08c-.65-1.86-.66-3.8-.02-5.82.71-2.28 2.03-4.01 3.95-5.21zm.66 2.15c-.78.49-1.42 1.14-1.92 1.96-.5.81-.81 1.73-.94 2.75-.12 1.02-.04 1.94.25 2.76.34.97.9 1.63 1.69 1.96s1.69.18 2.72-.46c1.19-.75 2.04-1.84 2.55-3.27s.54-2.81.08-4.11c-.38-1.08-.97-1.76-1.79-2.05-.81-.29-1.69-.13-2.64.46z"/><path d="m323.656 185.9 1.97-1.44 2.19 7.62c.19.67.34 1.12.46 1.38.19.42.46.67.81.72.35.06.76-.09 1.23-.43.38-.28.67-.61.87-.99.15-.29.22-.63.21-1.03s-.16-1.11-.45-2.12l-2.14-7.48 2-1.46 2.12 7.37c.44 1.52.64 2.68.62 3.5-.02.81-.23 1.58-.64 2.29-.4.71-1 1.35-1.77 1.92-1.05.77-2 1.07-2.86.9-.85-.17-1.51-.77-1.97-1.81-.2-.45-.44-1.16-.71-2.13z"/><path d="m332.746 179.1 1.65-1.41 7.61 4.12-3.03-8.03 1.85-1.58 4.46 11.8-1.62 1.38-7.7-4.16 3.06 8.12-1.82 1.55z"/><path d="m341.526 171.44 5.89-5.73.96 1.98-2.01 1.96 4.32 9.24-1.8 1.75-4.32-9.24-2.09 2.04z"/><path d="m346.816 166.33 1.75-1.9 4.3 2.18-.25-6.58 1.98-2.15.37 9.88 2.37 4.27-1.73 1.88-2.36-4.29z"/></g></svg>