<svg width="25" height="25" viewBox="0 0 25 25" fill="none" xmlns="http://www.w3.org/2000/svg">
<g id="ri:twitter-fill">
<path id="Vector" d="M23.1201 5.9998C22.357 6.3374 21.5477 6.55917 20.7191 6.6578C21.5921 6.13494 22.2454 5.31254 22.5571 4.3438C21.7371 4.8318 20.8381 5.1738 19.9021 5.3588C19.2727 4.68538 18.4384 4.23876 17.529 4.08838C16.6196 3.938 15.686 4.09229 14.8734 4.52725C14.0607 4.96221 13.4145 5.65348 13.0352 6.49359C12.6559 7.3337 12.5648 8.27558 12.7761 9.1728C11.113 9.08959 9.48605 8.65753 8.00082 7.90466C6.5156 7.1518 5.20532 6.09497 4.15508 4.8028C3.78337 5.44125 3.58804 6.16703 3.58908 6.9058C3.58908 8.3558 4.32808 9.6368 5.44908 10.3868C4.7851 10.3659 4.13573 10.1865 3.55508 9.8638V9.9148C3.55505 10.8807 3.88912 11.8168 4.50062 12.5645C5.11211 13.3121 5.9634 13.8252 6.91008 14.0168C6.29373 14.184 5.64738 14.2086 5.02008 14.0888C5.28701 14.9202 5.8073 15.6473 6.50808 16.1682C7.20887 16.6891 8.05504 16.9778 8.92808 16.9938C8.06044 17.6753 7.06697 18.179 6.00449 18.4762C4.94201 18.7734 3.83137 18.8582 2.73608 18.7258C4.64781 19.9552 6.87319 20.6079 9.14608 20.6058C16.8401 20.6058 21.0461 14.2328 21.0461 8.7058C21.0461 8.5258 21.0421 8.3438 21.0341 8.1648C21.8525 7.57316 22.5589 6.83936 23.1201 5.9998Z" fill="white"/>
</g>
</svg>
